<?xml version="1.0" encoding="UTF-8" standalone="no"?> <svg xmlns="http://www.w3.org/2000/svg" viewBox="0 0 90 90"><defs><style>.cls-1,.cls-12{fill:#073349;}.cls-2{fill:#ff9700;}.cls-3{fill:#ffb600;}.cls-4{fill:#fff;opacity:0.15;}.cls-5{fill:#d7ebf4;}.cls-6{fill:#bfd7e2;}.cls-7{fill:#1b5a89;}.cls-8{fill:#eff7fb;opacity:0.3;}.cls-9{opacity:0.1;}.cls-10{fill:#e8f3f9;}.cls-11{fill:#ccdfe8;}.cls-12,.cls-14{opacity:0.2;}.cls-13{fill:#18456d;}.cls-14{fill:#95bed3;}.cls-15{fill:#2cb4ff;}.cls-16{fill:#349dd1;}.cls-17{fill:#91bde5;}</style></defs><title>spaceship</title><g id="spaceship"><g id="spaceship-2" data-name="spaceship"><circle id="back" class="cls-1" cx="45" cy="45" r="42.5"/><g id="spaceship-3" data-name="spaceship"><path class="cls-2" d="M50.89,26.69H39c-.05.33-.09.61-.11.83H51C51,27.3,50.94,27,50.89,26.69Z"/><path class="cls-3" d="M45,27.37H38.84a2.32,2.32,0,0,0,0,.25V67.24H51.11V27.62a2.27,2.27,0,0,0,0-.25H45"/><path class="cls-3" d="M45,19.45c-2.52,0-5.59,5-6,7.25H51C50.53,24.43,47.52,19.45,45,19.45Z"/><path class="cls-4" d="M50.11,69.4V27.64c0-1.18-1.86-8.19-5.21-8.19l-.32,0a3.08,3.08,0,0,0-.85.21c3,1.21,4.07,6.9,4.07,8V69.4Z"/><path class="cls-5" d="M51.24,43.79c0,.07,0,.14,0,.19V73.32h6.41V44s0-.11,0-.19Z"/><rect class="cls-6" x="51.24" y="68.98" width="6.41" height="0.79"/><rect class="cls-6" x="51.24" y="72.46" width="6.41" height="0.67"/><path class="cls-5" d="M54.44,38c-2,0-2.9,3.5-3.14,5.09h6.28C57.34,41.5,56.43,38,54.44,38Z"/><path class="cls-6" d="M57.58,43H51.3c0,.19,0,.74-.06.87h6.39C57.63,43.74,57.61,43.19,57.58,43Z"/><polygon class="cls-6" points="57.65 73.1 51.24 73.1 48.83 75.65 60.05 75.65 57.65 73.1"/><rect class="cls-7" x="48.83" y="75.65" width="11.22" height="1.42"/><path class="cls-8" d="M57.16,68V43.76c0-.83-.72-5.74-2.72-5.75h-.17a1.29,1.29,0,0,0-.44.15C55.38,39,56,43,56,43.76V68"/><polygon class="cls-9" points="60.05 75.65 51.24 70.46 51.24 68.03 57.65 68.03 57.65 73.1 60.05 75.65"/><path class="cls-5" d="M32.31,43.79c0,.07,0,.14,0,.19V73.32h6.41V44s0-.11,0-.19Z"/><rect class="cls-6" x="32.3" y="68.98" width="6.41" height="0.79"/><rect class="cls-6" x="32.3" y="72.46" width="6.41" height="0.67"/><path class="cls-5" d="M35.5,38c-2,0-2.9,3.5-3.14,5.09h6.28C38.41,41.5,37.49,38,35.5,38Z"/><path class="cls-6" d="M38.64,43H32.36c0,.19,0,.74-.06.87H38.7C38.69,43.74,38.67,43.19,38.64,43Z"/><polygon class="cls-6" points="38.71 73.1 32.3 73.1 29.89 75.65 41.12 75.65 38.71 73.1"/><rect class="cls-7" x="29.89" y="75.65" width="11.22" height="1.42"/><path class="cls-8" d="M38.22,64.91V43.76c0-.83-.72-5.74-2.72-5.75h-.17a1.29,1.29,0,0,0-.44.15C36.44,39,37,43,37,43.76V64.91"/><polygon class="cls-9" points="41.12 75.65 32.3 70.46 32.3 68.03 38.71 68.03 38.71 73.1 41.12 75.65"/><polygon class="cls-6" points="28.7 67.98 28.7 64.91 40.73 48.85 49.43 48.85 61.25 64.91 61.25 67.98 28.7 67.98"/><rect class="cls-5" x="28.7" y="64.91" width="32.55" height="3.2"/><polygon class="cls-10" points="28.7 65.3 28.7 64.91 29.45 64.24 60.43 64.24 61.25 64.91 61.25 65.31 28.7 65.3"/><polygon class="cls-11" points="28.7 64.91 29.48 63.84 60.46 63.84 61.25 64.91 28.7 64.91"/><polygon class="cls-12" points="50.84 60.29 50.84 50.77 49.46 48.93 39.56 68.11 53.37 68.11 53.37 65.03 50.84 60.29"/><polygon class="cls-12" points="39.34 60.29 39.34 50.77 40.71 48.93 50.61 68.11 36.8 68.11 36.8 65.03 39.34 60.29"/><path class="cls-5" d="M49.34,61.34V36.92a11.51,11.51,0,0,0-3-7.82,1.83,1.83,0,0,0-2.72,0,11.51,11.51,0,0,0-3,7.82V61.34l-2.54,4.58v3.16H51.88V65.92Z"/><rect class="cls-6" x="40.53" y="60.58" width="8.88" height="0.79"/><polygon class="cls-5" points="51.88 65.92 38.07 65.92 40.6 61.39 49.31 61.39 51.88 65.92"/><rect class="cls-13" x="39.45" y="67.29" width="11.05" height="3.37"/><rect class="cls-7" x="38.07" y="65.92" width="13.81" height="3.28"/><rect class="cls-13" x="44.71" y="65.92" width="0.59" height="3.28"/><polyline class="cls-14" points="47.87 69.21 47.87 70.66 49.05 70.66 49.05 69.21"/><path class="cls-8" d="M50.1,69.21V65.93l-1.78-4.55V34.65c0-.86-.94-5.75-3.55-6.13a4.54,4.54,0,0,0-.79.35c1.92,1.21,2.64,5,2.64,5.78V61.39l1.78,4.55v3.28"/><circle class="cls-7" cx="45" cy="38.33" r="3.31" transform="translate(-13.92 43.05) rotate(-45)"/><path class="cls-15" d="M43.3,40a2.41,2.41,0,0,1,3.41-3.41"/><path class="cls-16" d="M46.71,36.63A2.41,2.41,0,1,1,43.3,40"/></g><g id="stars"><circle class="cls-17" cx="55.24" cy="26.22" r="0.52"/><circle class="cls-17" cx="26.17" cy="35.6" r="0.43"/><circle class="cls-17" cx="21.11" cy="25.25" r="0.43"/><circle class="cls-17" cx="32.85" cy="22.26" r="0.33"/><circle class="cls-17" cx="75.56" cy="32.9" r="0.43"/><circle class="cls-17" cx="13.69" cy="55.99" r="0.33"/><circle class="cls-17" cx="68.27" cy="53.14" r="0.43"/><circle class="cls-17" cx="63.08" cy="30.53" r="0.43"/><circle class="cls-17" cx="25.52" cy="47.95" r="0.43"/><circle class="cls-17" cx="76.21" cy="44.46" r="0.43"/><circle class="cls-17" cx="66.91" cy="39.8" r="0.33"/><circle class="cls-17" cx="58.25" cy="17.3" r="0.33"/><circle class="cls-17" cx="44.85" cy="13.22" r="0.31"/><circle class="cls-17" cx="14.87" cy="41.52" r="0.54"/></g></g></g></svg>