<?xml version="1.0" encoding="iso-8859-1"?>
<!-- Generator: Adobe Illustrator 19.0.0, SVG Export Plug-In . SVG Version: 6.00 Build 0)  -->
<svg version="1.1" id="Layer_1" xmlns="http://www.w3.org/2000/svg" xmlns:xlink="http://www.w3.org/1999/xlink" x="0px" y="0px"
	 viewBox="0 0 283.154 283.154" style="enable-background:new 0 0 283.154 283.154;" xml:space="preserve">
<g>
	<path style="fill:#13829B;" d="M163.124,19.033c-10.242-15.391-32.852-15.391-43.095,0l-17.049,25.62h77.193L163.124,19.033z"/>
	<path style="fill:#28D2E4;" d="M180.173,44.653H102.98C83.942,73.262,80.642,76.105,80.642,86.047v106.606h121.87V86.047
		C202.512,76.11,199.273,73.356,180.173,44.653z"/>
	<circle style="fill:#FFDB77;" cx="141.577" cy="128.153" r="26.681"/>
	<polygon style="fill:#FFDB77;" points="80.642,192.653 23.282,192.653 23.282,160.653 80.642,120.653 	"/>
	<polygon style="fill:#FFDB77;" points="202.512,192.653 259.872,192.653 259.872,160.653 202.512,120.653 	"/>
	<g>
		<path style="fill:#22313F;" d="M141.577,93.973c-18.848,0-34.181,15.333-34.181,34.181s15.333,34.181,34.181,34.181
			s34.181-15.333,34.181-34.181C175.757,109.306,160.424,93.973,141.577,93.973z M141.577,147.334
			c-10.576,0-19.181-8.605-19.181-19.181s8.604-19.181,19.181-19.181s19.181,8.604,19.181,19.181
			C160.757,138.73,152.153,147.334,141.577,147.334z"/>
		<path style="fill:#22313F;" d="M264.162,154.501l-54.15-37.761V86.047c0-13.265-3.187-14.885-40.644-71.169
			c-13.184-19.811-42.363-19.864-55.583,0l-17.049,25.62C69.059,82.09,73.142,69.525,73.142,116.74l-54.15,37.761
			c-2.012,1.403-3.21,3.7-3.21,6.152v32c0,4.143,3.357,7.5,7.5,7.5c7.239,0,219.697,0,236.59,0c4.143,0,7.5-3.357,7.5-7.5v-32
			C267.372,158.201,266.173,155.905,264.162,154.501z M126.273,23.189c7.293-10.962,23.326-10.944,30.606,0l9.294,13.965H116.98
			L126.273,23.189z M30.782,164.567l42.36-29.539v50.126h-42.36C30.782,185.154,30.782,164.567,30.782,164.567z M88.142,86.047
			c0-7.192,2.073-8.673,18.856-33.894h69.158c16.777,25.214,18.855,26.703,18.855,33.894c0,10.62,0,88.113,0,99.106H88.142
			C88.142,174.164,88.142,96.664,88.142,86.047z M252.372,185.154h-42.36v-50.126l42.36,29.539V185.154z"/>
		<path style="fill:#22313F;" d="M141.577,226.154c-4.143,0-7.5,3.357-7.5,7.5v42c0,4.143,3.357,7.5,7.5,7.5s7.5-3.357,7.5-7.5v-42
			C149.077,229.511,145.719,226.154,141.577,226.154z"/>
		<path style="fill:#22313F;" d="M101.577,226.154c-4.143,0-7.5,3.357-7.5,7.5v42c0,4.143,3.357,7.5,7.5,7.5s7.5-3.357,7.5-7.5v-42
			C109.077,229.511,105.719,226.154,101.577,226.154z"/>
		<path style="fill:#22313F;" d="M181.577,226.154c-4.143,0-7.5,3.357-7.5,7.5v42c0,4.143,3.357,7.5,7.5,7.5s7.5-3.357,7.5-7.5v-42
			C189.077,229.511,185.719,226.154,181.577,226.154z"/>
	</g>
</g>
<g>
</g>
<g>
</g>
<g>
</g>
<g>
</g>
<g>
</g>
<g>
</g>
<g>
</g>
<g>
</g>
<g>
</g>
<g>
</g>
<g>
</g>
<g>
</g>
<g>
</g>
<g>
</g>
<g>
</g>
</svg>
