<?xml version="1.0" encoding="iso-8859-1"?>
<!-- Generator: Adobe Illustrator 19.0.0, SVG Export Plug-In . SVG Version: 6.00 Build 0)  -->
<svg version="1.1" id="Layer_1" xmlns="http://www.w3.org/2000/svg" xmlns:xlink="http://www.w3.org/1999/xlink" x="0px" y="0px"
	 viewBox="0 0 511.996 511.996" style="enable-background:new 0 0 511.996 511.996;" xml:space="preserve">
<polygon style="fill:#1D71B8;" points="255.998,11.593 255.998,106.929 343.39,106.929 "/>
<polygon style="fill:#77AAD4;" points="255.998,11.593 255.998,106.929 168.606,106.929 "/>
<polygon style="fill:#FAC15C;" points="308.251,448.554 204.925,448.554 192.44,480.332 319.555,480.332 "/>
<g>
	<polygon style="fill:#F9B233;" points="308.251,448.554 204.925,448.554 218.603,416.774 296.439,416.957 	"/>
	<rect x="160.66" y="154.594" style="fill:#F9B233;" width="190.671" height="87.392"/>
</g>
<rect x="160.66" y="154.594" style="fill:#FAC15C;" width="95.341" height="87.392"/>
<rect x="160.66" y="241.986" style="fill:#1D71B8;" width="190.671" height="150.949"/>
<rect x="160.66" y="241.986" style="fill:#77AAD4;" width="95.341" height="150.949"/>
<path style="fill:#FFFFFF;" d="M200.385,297.604c30.714,0,55.613-24.899,55.613-55.614s-24.898-55.614-55.613-55.614H160.66v111.226
	h39.725V297.604z"/>
<g>
	
		<rect x="184.593" y="206.919" transform="matrix(-0.7071 -0.7071 0.7071 -0.7071 174.2347 508.4787)" style="fill:#1D1D1B;" width="15.667" height="22.471"/>
	
		<rect x="200.483" y="216.226" transform="matrix(-0.7071 -0.7071 0.7071 -0.7071 178.8899 573.9619)" style="fill:#1D1D1B;" width="15.667" height="67.41"/>
	<rect x="200.382" y="353.328" style="fill:#1D1D1B;" width="15.889" height="15.667"/>
	<rect x="232.166" y="353.328" style="fill:#1D1D1B;" width="15.89" height="15.667"/>
	<rect x="263.939" y="353.328" style="fill:#1D1D1B;" width="15.89" height="15.667"/>
	<rect x="295.723" y="353.328" style="fill:#1D1D1B;" width="15.89" height="15.667"/>
	<rect x="168.609" y="496.329" style="fill:#1D1D1B;" width="174.502" height="15.667"/>
	<path style="fill:#1D1D1B;" d="M152.827,400.774h206.341V146.765H152.827V400.774z M168.494,385.107v-16.112h16v-15.667h-16
		v-47.891h31.89c32.33,0,59.072-24.314,62.946-55.614h80.17v103.503h-16v15.667h16v16.112H168.494V385.107z M168.494,289.77v-95.559
		h31.89c26.346,0,47.779,21.434,47.779,47.78s-21.434,47.78-47.779,47.78h-31.89V289.77z M343.501,162.432v71.725h-80.17
		c-3.874-31.3-30.616-55.614-62.946-55.614h-31.89v-16.112h175.006V162.432z"/>
	<path style="fill:#1D1D1B;" d="M255.998,0L150.798,114.763h210.399L255.998,0z M255.998,23.187l69.585,75.91H186.413
		L255.998,23.187z"/>
	<rect x="152.712" y="122.925" style="fill:#1D1D1B;" width="206.568" height="15.667"/>
	<path style="fill:#1D1D1B;" d="M307.025,424.608h12.53v-15.667H192.44v15.667h12.53l-17.958,47.891h-18.406v15.667H343.39v-15.667
		h-18.406L307.025,424.608z M209.786,456.387h14.433V440.72h-8.557l6.041-16.112h68.591l6.041,16.112h-8.557v15.667h14.433
		l6.041,16.111H203.743L209.786,456.387z"/>
</g>
<g>
	<rect x="279.836" y="265.936" style="fill:#FFFFFF;" width="55.608" height="15.667"/>
	<rect x="295.723" y="289.771" style="fill:#FFFFFF;" width="39.722" height="15.667"/>
</g>
<g>
</g>
<g>
</g>
<g>
</g>
<g>
</g>
<g>
</g>
<g>
</g>
<g>
</g>
<g>
</g>
<g>
</g>
<g>
</g>
<g>
</g>
<g>
</g>
<g>
</g>
<g>
</g>
<g>
</g>
</svg>
