<?xml version="1.0" encoding="iso-8859-1"?>
<!-- Generator: Adobe Illustrator 19.0.0, SVG Export Plug-In . SVG Version: 6.00 Build 0)  -->
<svg version="1.1" id="Capa_1" xmlns="http://www.w3.org/2000/svg" xmlns:xlink="http://www.w3.org/1999/xlink" x="0px" y="0px"
	 viewBox="0 0 511.988 511.988" style="enable-background:new 0 0 511.988 511.988;" xml:space="preserve">
<g>
	<path style="fill:#B6B8BE;" d="M248.062,318.949c0.516-3.984,3.914-6.965,7.93-6.965v-88h-24v88.003
		c-3.601-0.019-6.81,2.42-7.738,5.978l-33.918,130.02h40.896L248.062,318.949z"/>
	<path style="fill:#E3E6E9;" d="M271.992,159.984h-16v16h24v-18.158c-1.464,0.848-3.066,1.483-4.776,1.833
		C274.175,159.872,273.097,159.984,271.992,159.984z"/>
	<path style="fill:#E3E6E9;" d="M255.992,311.984c4.016,0,7.414,2.98,7.93,6.965l16.831,129.035h40.9l3.197,12.252l-37.114-142.272
		c-0.929-3.559-4.14-5.998-7.742-5.978v-88.003h-24V311.984z"/>
	<path style="fill:#B6B8BE;" d="M255.992,159.984h-16c-2.918,0-5.645-0.794-8-2.158v18.158h24V159.984z"/>
	<polygon style="fill:#B6B8BE;" points="280.752,447.984 283.883,471.984 327.913,471.984 324.849,460.237 321.652,447.984 	"/>
	<polygon style="fill:#5C546A;" points="228.101,471.984 231.232,447.984 190.336,447.984 190.253,447.984 183.992,471.984 
		184.075,471.984 	"/>
	<path style="fill:#FFCF00;" d="M335.734,501.964l-7.821-29.98h-44.031l4.039,30.965c0.305,2.285-0.398,4.582-1.922,6.313
		c-1.516,1.73-3.703,2.723-6.008,2.723c4.422,0,44.445,0.004,47.992,0.004c0.672,0,1.352-0.086,2.023-0.262
		C334.289,510.609,336.851,506.238,335.734,501.964z"/>
	<path style="fill:#FF7400;" d="M225.984,509.261c-1.523-1.73-2.227-4.027-1.922-6.313l4.039-30.965h-44.027l-7.821,29.98
		c-1.117,4.273,1.445,8.645,5.727,9.762c0.672,0.176,1.352,0.262,2.023,0.262c3.546,0,43.551-0.004,47.988-0.004
		C229.687,511.984,227.5,510.992,225.984,509.261z"/>
	<path style="fill:#FF7400;" d="M275.216,159.659c1.71-0.35,3.312-0.985,4.776-1.833c3.886-2.251,6.746-6.078,7.675-10.617
		C286.388,153.458,281.466,158.38,275.216,159.659z"/>
	<path style="fill:#FF7400;" d="M282.679,63.032c0.98,3.142,1.872,6.072,2.632,8.678C284.55,69.104,283.659,66.174,282.679,63.032z"
		/>
	<path style="fill:#FF7400;" d="M285.311,71.71c0.38,1.303,0.728,2.525,1.037,3.653C286.038,74.235,285.691,73.013,285.311,71.71z"
		/>
	<path style="fill:#FF7400;" d="M286.645,76.458c0.189,0.708,0.361,1.372,0.513,1.988C287.006,77.83,286.834,77.166,286.645,76.458z
		"/>
	<path style="fill:#FF7400;" d="M276.638,44.313c0.585,1.77,1.166,3.538,1.739,5.291C277.804,47.852,277.223,46.083,276.638,44.313z
		"/>
	<path style="fill:#FF7400;" d="M281.67,59.825c0.345,1.09,0.682,2.161,1.009,3.208C282.352,61.985,282.015,60.915,281.67,59.825z"
		/>
	<path style="fill:#FF7400;" d="M278.377,49.604c1.146,3.506,2.257,6.95,3.293,10.22C280.634,56.555,279.523,53.11,278.377,49.604z"
		/>
	<rect x="223.992" y="87.984" style="fill:#FF7400;" width="32" height="40"/>
	<path style="fill:#FF7400;" d="M248.938,4.324c0.068-0.196,0.108-0.309,0.108-0.309c0.128-0.225,0.276-0.427,0.421-0.633
		c-0.144,0.206-0.292,0.408-0.421,0.633c0,0-7.071,20.241-13.7,40.298c6.116-18.504,12.604-37.153,13.572-39.932
		C248.925,4.361,248.932,4.343,248.938,4.324z"/>
	<path style="fill:#FF7400;" d="M263.046,4.324c0.006,0.019,0.013,0.037,0.02,0.057c0.969,2.779,7.457,21.428,13.573,39.932
		c-6.629-20.058-13.7-40.298-13.7-40.298c-0.048-0.084-0.107-0.156-0.158-0.238c0.051,0.082,0.11,0.153,0.158,0.238
		C262.938,4.015,262.977,4.128,263.046,4.324z"/>
	<path style="fill:#FF7400;" d="M287.992,143.984c0,1.104-0.112,2.183-0.325,3.225C287.88,146.167,287.992,145.089,287.992,143.984z
		"/>
	<path style="fill:#FF7400;" d="M287.832,81.524c0.07,0.405,0.118,0.753,0.142,1.041C287.95,82.278,287.902,81.93,287.832,81.524z"
		/>
	<path style="fill:#FF7400;" d="M225.636,75.363c0.31-1.127,0.657-2.35,1.037-3.653C226.293,73.013,225.945,74.235,225.636,75.363z"
		/>
	<path style="fill:#FF7400;" d="M224.826,78.446c0.153-0.616,0.324-1.28,0.513-1.988C225.15,77.166,224.978,77.83,224.826,78.446z"
		/>
	<path style="fill:#FF7400;" d="M224.01,82.565c0.024-0.288,0.072-0.636,0.142-1.041C224.082,81.93,224.034,82.278,224.01,82.565z"
		/>
	<path style="fill:#FF7400;" d="M229.305,63.032c0.327-1.047,0.664-2.118,1.009-3.208C229.969,60.915,229.632,61.985,229.305,63.032
		z"/>
	<path style="fill:#FF7400;" d="M226.673,71.71c0.76-2.606,1.651-5.536,2.632-8.678C228.325,66.174,227.433,69.104,226.673,71.71z"
		/>
	<path style="fill:#FF7400;" d="M233.607,49.604c0.573-1.753,1.154-3.521,1.739-5.291C234.761,46.083,234.18,47.852,233.607,49.604z
		"/>
	<path style="fill:#FF7400;" d="M230.314,59.825c1.036-3.27,2.147-6.714,3.293-10.22C232.461,53.11,231.35,56.555,230.314,59.825z"
		/>
	<path style="fill:#FF7400;" d="M271.992,159.984c1.104,0,2.183-0.112,3.224-0.325C274.175,159.872,273.097,159.984,271.992,159.984
		z"/>
	<path style="fill:#FF7400;" d="M255.992,159.984v-8v-8h-32c0,5.918,3.222,11.074,8,13.842c2.355,1.364,5.082,2.158,8,2.158H255.992
		z"/>
	<path style="fill:#D5D9DE;" d="M263.922,318.949c-0.516-3.984-3.914-6.965-7.93-6.965s-7.414,2.98-7.93,6.965l-16.831,129.035
		l-3.13,24l-4.039,30.965l4.039-30.965l3.13-24h4.435h40.573h4.513l3.13,24l4.039,30.965l-4.039-30.965l-3.13-24L263.922,318.949z"
		/>
	<path style="fill:#FF9300;" d="M286,509.261c1.523-1.73,2.226-4.027,1.922-6.313l-4.039-30.965h-11.672h-0.219h-31.996h-0.301
		h-11.593l-4.039,30.965c-0.305,2.285,0.398,4.582,1.922,6.313c1.516,1.73,3.703,2.723,6.008,2.723c0.001,0,0.003,0,0.004,0h47.996
		C282.297,511.984,284.484,510.992,286,509.261z"/>
	<rect x="231.992" y="175.984" style="fill:#FF7400;" width="24" height="48"/>
	<rect x="255.992" y="175.984" style="fill:#FFCF00;" width="24" height="48"/>
	<polygon style="fill:#888693;" points="276.239,447.984 235.666,447.984 231.232,447.984 228.101,471.984 239.695,471.984 
		239.996,471.984 271.992,471.984 272.211,471.984 283.883,471.984 280.752,447.984 	"/>
	<path style="fill:#FFCF00;" d="M262.215,2.963c0.26,0.326,0.506,0.672,0.723,1.052c-0.048-0.084-0.107-0.156-0.158-0.238
		c-0.753-1.22-1.746-2.156-2.876-2.786C260.769,1.474,261.554,2.136,262.215,2.963z"/>
	<rect x="255.992" y="87.984" style="fill:#FFCF00;" width="32" height="40"/>
	<path style="fill:#FFCF00;" d="M255.992,151.984v8h16c1.104,0,2.183-0.112,3.224-0.325c6.249-1.279,11.172-6.201,12.45-12.45
		c0.213-1.042,0.325-2.12,0.325-3.225h-32V151.984z"/>
	<path style="fill:#888693;" d="M253.476,0.4c-1.408,0.46-2.705,1.309-3.707,2.563C250.771,1.709,252.068,0.86,253.476,0.4z"/>
	<path style="fill:#888693;" d="M248.938,4.324c0.07-0.199,0.108-0.309,0.108-0.309S249.006,4.128,248.938,4.324z"/>
	<path style="fill:#888693;" d="M230.314,59.825c-0.345,1.09-0.682,2.161-1.009,3.208c-0.981,3.142-1.872,6.072-2.632,8.678
		c-0.38,1.303-0.728,2.525-1.037,3.653c-0.103,0.375-0.202,0.741-0.297,1.095c-0.189,0.708-0.361,1.372-0.513,1.988
		c-0.305,1.231-0.534,2.268-0.674,3.079c-0.07,0.405-0.118,0.753-0.142,1.041c-0.012,0.144-0.018,0.272-0.018,0.385v5.034h32v-32
		h-24.449"/>
	<path style="fill:#B6B8BE;" d="M262.215,2.963c-0.661-0.828-1.446-1.49-2.311-1.972c-0.446-0.249-0.917-0.435-1.396-0.592
		C259.915,0.86,261.213,1.709,262.215,2.963z"/>
	<path style="fill:#B6B8BE;" d="M263.046,4.324c-0.068-0.196-0.108-0.309-0.108-0.309S262.976,4.125,263.046,4.324z"/>
	<path style="fill:#B6B8BE;" d="M287.974,82.565c-0.024-0.288-0.072-0.636-0.142-1.041c-0.14-0.811-0.369-1.848-0.674-3.079
		c-0.153-0.616-0.324-1.28-0.513-1.988c-0.095-0.354-0.194-0.72-0.297-1.095c-0.31-1.127-0.657-2.35-1.037-3.653
		c-0.76-2.606-1.652-5.536-2.632-8.678c-0.327-1.047-0.664-2.118-1.009-3.208l-1.229-3.84h-24.449v32h32v-5.034
		C287.992,82.838,287.986,82.709,287.974,82.565z"/>
	<path style="fill:#5C546A;" d="M248.938,4.324c-0.006,0.019-0.013,0.037-0.02,0.057c-1.183,3.395-10.479,30.123-17.375,51.603
		h24.449h24.449c-6.897-21.48-16.193-48.208-17.376-51.603c-0.007-0.02-0.013-0.039-0.02-0.057c-0.07-0.199-0.108-0.309-0.108-0.309
		c-0.217-0.38-0.462-0.726-0.723-1.052c-1.002-1.254-2.3-2.103-3.707-2.563c-1.631-0.533-3.4-0.533-5.031,0
		c-1.408,0.46-2.706,1.309-3.707,2.563c-0.106,0.133-0.203,0.277-0.302,0.419c-0.144,0.206-0.292,0.408-0.421,0.633
		C249.046,4.015,249.008,4.125,248.938,4.324z"/>
	<rect x="223.992" y="127.984" style="fill:#888693;" width="32" height="16"/>
	<rect x="255.992" y="127.984" style="fill:#B6B8BE;" width="32" height="16"/>
</g>
<g>
</g>
<g>
</g>
<g>
</g>
<g>
</g>
<g>
</g>
<g>
</g>
<g>
</g>
<g>
</g>
<g>
</g>
<g>
</g>
<g>
</g>
<g>
</g>
<g>
</g>
<g>
</g>
<g>
</g>
</svg>
