<svg id="svg" version="1.1" xmlns="http://www.w3.org/2000/svg" xmlns:xlink="http://www.w3.org/1999/xlink" width="400" height="400" viewBox="0, 0, 400,400"><g id="svgg"><path id="path0" d="M195.250 25.040 L 195.250 41.298 194.706 42.086 C 194.406 42.520,193.588 43.550,192.888 44.375 C 192.188 45.200,191.133 46.494,190.544 47.250 C 189.955 48.006,188.691 49.581,187.735 50.750 C 186.779 51.919,185.481 53.550,184.851 54.375 C 183.711 55.867,182.434 57.458,179.688 60.808 L 178.250 62.561 178.250 67.531 L 178.250 72.500 182.375 72.500 L 186.500 72.500 186.522 71.688 C 186.533 71.241,186.542 69.651,186.541 68.155 L 186.538 65.435 188.006 63.655 C 190.614 60.490,195.323 54.645,197.363 52.040 C 198.456 50.643,199.432 49.585,199.531 49.688 C 199.630 49.791,202.532 53.405,205.981 57.719 L 212.250 65.562 212.250 69.037 L 212.250 72.512 216.438 72.444 L 220.625 72.375 220.635 67.500 L 220.644 62.625 212.135 52.000 L 203.625 41.375 203.612 25.125 L 203.599 8.875 199.424 8.828 L 195.250 8.781 195.250 25.040 M173.813 76.944 L 169.750 77.012 169.750 121.599 L 169.750 166.185 173.874 166.172 L 177.998 166.159 178.061 138.517 L 178.125 110.875 199.438 110.825 L 220.750 110.775 220.750 138.489 L 220.750 166.202 224.938 166.164 L 229.125 166.125 229.167 121.563 L 229.208 77.000 220.167 76.992 C 215.194 76.987,203.644 76.959,194.500 76.929 C 185.356 76.899,176.047 76.906,173.813 76.944 M220.691 93.813 C 220.727 98.453,220.671 102.267,220.566 102.288 C 220.461 102.309,210.897 102.345,199.313 102.367 L 178.250 102.408 178.233 101.516 C 178.215 100.565,178.220 87.665,178.239 86.330 C 178.253 85.287,176.292 85.373,200.000 85.374 L 220.625 85.375 220.691 93.813 M161.250 230.141 L 161.250 289.670 199.501 289.671 L 237.751 289.671 237.688 230.148 L 237.625 170.625 199.438 170.618 L 161.250 170.611 161.250 230.141 M229.250 191.750 L 229.250 204.500 223.938 204.512 C 217.667 204.525,180.315 204.524,173.991 204.510 L 169.607 204.500 169.648 191.938 C 169.670 185.028,169.702 179.291,169.719 179.188 C 169.736 179.084,183.137 179.000,199.500 179.000 L 229.250 179.000 229.250 191.750 M229.250 247.125 L 229.250 281.250 226.813 281.255 C 221.513 281.265,170.832 281.270,170.188 281.260 L 169.500 281.250 169.500 247.125 L 169.500 213.000 199.375 213.000 L 229.250 213.000 229.250 247.125 M161.250 298.298 L 161.250 302.486 168.250 302.431 C 172.100 302.400,175.250 302.413,175.250 302.460 C 175.250 302.507,174.147 303.632,172.798 304.960 C 167.478 310.199,164.355 315.693,162.098 323.786 C 162.034 324.013,161.940 324.519,161.888 324.911 C 161.836 325.304,161.656 326.637,161.489 327.875 C 159.991 338.914,165.789 352.782,181.084 374.746 C 185.987 381.786,197.122 396.176,198.937 397.818 C 199.570 398.391,206.466 390.451,211.243 383.649 C 211.446 383.361,212.065 382.545,212.618 381.836 C 213.172 381.128,214.188 379.749,214.875 378.773 C 215.563 377.796,216.547 376.439,217.063 375.756 C 217.578 375.073,218.000 374.445,218.000 374.359 C 218.000 374.274,218.398 373.680,218.885 373.039 C 219.872 371.740,224.750 364.332,224.750 364.133 C 224.750 364.063,225.252 363.221,225.866 362.263 C 230.504 355.029,235.592 343.985,236.874 338.375 C 239.521 326.784,234.950 313.176,225.455 304.385 C 224.477 303.480,223.737 302.680,223.809 302.607 C 223.882 302.535,227.048 302.481,230.846 302.487 L 237.750 302.499 237.750 298.300 L 237.750 294.102 199.500 294.105 L 161.250 294.109 161.250 298.298 M202.846 303.211 C 208.347 305.645,209.656 312.839,205.366 317.068 C 201.328 321.050,194.426 319.991,191.885 315.000 C 188.249 307.860,195.566 299.991,202.846 303.211 M182.555 310.219 C 181.928 323.235,195.116 331.837,207.013 326.173 C 213.127 323.262,217.085 316.000,216.271 309.188 C 216.050 307.342,216.162 307.356,218.656 309.479 C 226.701 316.330,230.854 327.653,228.666 336.768 C 227.819 340.297,226.357 343.936,223.652 349.250 C 222.529 351.456,222.182 352.084,220.659 354.667 C 220.159 355.515,219.750 356.272,219.750 356.350 C 219.750 356.427,219.205 357.308,218.539 358.308 C 217.873 359.307,216.740 361.081,216.023 362.250 C 214.552 364.645,210.633 370.407,208.375 373.496 C 205.140 377.921,199.792 384.944,199.539 385.101 C 199.181 385.322,190.273 373.324,185.265 365.875 C 174.272 349.525,169.120 337.926,169.617 330.643 C 170.214 321.898,173.859 314.850,180.825 308.974 C 182.721 307.375,182.693 307.354,182.555 310.219 " stroke="none" fill="#1c1d1c" fill-rule="evenodd"></path><path id="path1" d="M198.088 51.438 C 197.407 52.228,196.579 53.269,196.248 53.750 C 195.916 54.231,194.459 56.076,193.010 57.849 C 191.561 59.622,189.940 61.647,189.409 62.349 C 188.877 63.051,188.062 64.023,187.596 64.511 L 186.750 65.396 186.750 69.073 L 186.750 72.750 184.771 72.750 L 182.791 72.750 182.708 74.506 C 182.662 75.471,182.662 76.371,182.708 76.506 C 182.762 76.662,189.019 76.750,200.021 76.750 L 217.250 76.750 217.250 74.759 L 217.250 72.767 214.688 72.696 L 212.125 72.625 212.090 69.068 L 212.054 65.510 205.855 57.755 C 202.445 53.490,199.581 50.000,199.490 50.000 C 199.399 50.000,198.768 50.647,198.088 51.438 M203.693 68.294 C 203.756 72.106,203.724 72.473,203.318 72.587 C 202.656 72.772,195.569 72.652,195.369 72.452 C 195.222 72.306,195.130 67.503,195.222 64.806 L 195.250 63.988 199.438 64.056 L 203.625 64.125 203.693 68.294 M178.250 138.721 L 178.250 166.456 176.438 166.403 L 174.625 166.350 174.625 168.397 L 174.625 170.444 200.188 170.415 L 225.750 170.387 225.750 168.381 L 225.751 166.375 223.188 166.375 L 220.625 166.375 220.582 138.875 C 220.558 123.750,220.530 111.299,220.519 111.205 C 220.509 111.112,210.994 111.024,199.375 111.010 L 178.250 110.985 178.250 138.721 M169.750 247.095 L 169.750 280.942 170.313 281.044 C 171.109 281.188,228.692 281.065,228.930 280.919 C 229.037 280.852,229.120 265.628,229.115 247.086 L 229.105 213.375 199.427 213.311 L 169.750 213.248 169.750 247.095 M180.349 309.714 C 178.466 311.349,175.250 314.765,175.250 315.130 C 175.250 315.225,174.937 315.713,174.554 316.214 C 173.952 317.003,172.340 320.109,171.746 321.625 C 169.808 326.575,169.279 332.987,170.460 337.224 C 173.426 347.875,183.969 365.388,198.717 384.163 L 199.335 384.950 200.288 383.788 C 202.103 381.572,204.569 378.367,205.704 376.750 C 206.331 375.856,207.591 374.113,208.505 372.875 C 210.695 369.908,217.934 359.107,218.223 358.375 C 218.277 358.238,218.558 357.789,218.848 357.378 C 219.138 356.967,219.571 356.236,219.811 355.753 C 220.051 355.270,220.457 354.538,220.713 354.125 C 222.617 351.061,226.750 342.692,226.750 341.902 C 226.750 341.727,226.825 341.509,226.916 341.417 C 227.209 341.124,227.935 338.851,228.492 336.479 C 230.567 327.636,226.589 316.540,219.026 310.078 C 216.754 308.137,216.089 307.721,216.352 308.404 C 216.996 310.083,216.205 315.845,214.977 318.423 C 207.185 334.771,182.478 329.191,182.390 311.063 C 182.382 309.378,182.364 308.000,182.349 308.000 C 182.335 308.000,181.435 308.771,180.349 309.714 " stroke="none" fill="#fbbc4a" fill-rule="evenodd"></path><path id="path2" d="M178.813 85.454 C 178.367 85.518,178.248 85.700,178.239 86.330 C 178.220 87.665,178.215 100.565,178.233 101.516 L 178.250 102.408 199.313 102.367 C 210.897 102.345,220.461 102.309,220.566 102.288 C 220.671 102.267,220.727 98.453,220.691 93.813 L 220.625 85.375 200.000 85.374 C 188.656 85.374,179.122 85.409,178.813 85.454 M203.750 93.881 L 203.750 98.262 199.438 98.193 L 195.125 98.125 195.080 94.125 C 195.056 91.925,195.080 89.984,195.135 89.813 C 195.209 89.579,196.306 89.500,199.492 89.500 L 203.750 89.500 203.750 93.881 M169.719 179.188 C 169.702 179.291,169.670 185.028,169.648 191.938 L 169.607 204.500 173.991 204.510 C 180.315 204.524,217.667 204.525,223.938 204.512 L 229.250 204.500 229.250 191.750 L 229.250 179.000 199.500 179.000 C 183.137 179.000,169.736 179.084,169.719 179.188 M186.693 191.826 L 186.625 196.125 182.875 196.197 C 177.448 196.300,177.975 196.780,178.056 191.806 L 178.125 187.625 179.125 187.500 C 179.675 187.431,181.618 187.409,183.443 187.451 L 186.762 187.527 186.693 191.826 M203.750 191.899 L 203.750 196.270 199.438 196.197 L 195.125 196.125 195.091 191.875 L 195.056 187.625 196.341 187.500 C 197.047 187.431,199.003 187.410,200.688 187.452 L 203.750 187.529 203.750 191.899 M220.750 191.894 L 220.750 196.264 216.525 196.238 L 212.300 196.212 212.211 195.418 C 212.162 194.982,212.123 193.055,212.123 191.136 C 212.125 186.974,211.638 187.342,217.008 187.450 L 220.750 187.525 220.750 191.894 " stroke="none" fill="#1c73bb" fill-rule="evenodd"></path><path id="path3" d="M195.058 23.250 C 195.058 23.731,195.109 23.928,195.172 23.688 C 195.235 23.447,195.235 23.053,195.172 22.813 C 195.109 22.572,195.058 22.769,195.058 23.250 M195.058 30.000 C 195.058 30.481,195.109 30.678,195.172 30.438 C 195.235 30.197,195.235 29.803,195.172 29.563 C 195.109 29.322,195.058 29.519,195.058 30.000 M195.058 32.500 C 195.058 32.981,195.109 33.178,195.172 32.938 C 195.235 32.697,195.235 32.303,195.172 32.063 C 195.109 31.822,195.058 32.019,195.058 32.500 M178.068 66.000 C 178.068 66.619,178.117 66.872,178.176 66.563 C 178.236 66.253,178.236 65.747,178.176 65.438 C 178.117 65.128,178.068 65.381,178.068 66.000 M178.068 68.500 C 178.068 69.119,178.117 69.372,178.176 69.063 C 178.236 68.753,178.236 68.247,178.176 67.938 C 178.117 67.628,178.068 67.881,178.068 68.500 M178.080 72.125 C 178.126 72.582,178.320 72.626,180.316 72.641 L 182.501 72.656 180.392 72.569 C 178.665 72.497,178.260 72.404,178.156 72.053 C 178.062 71.735,178.042 71.754,178.080 72.125 M218.066 72.679 C 218.446 72.737,219.008 72.735,219.316 72.676 C 219.623 72.617,219.313 72.570,218.625 72.572 C 217.938 72.573,217.686 72.622,218.066 72.679 M197.949 89.686 C 199.090 89.733,200.890 89.732,201.949 89.686 C 203.008 89.639,202.075 89.601,199.875 89.601 C 197.675 89.602,196.808 89.640,197.949 89.686 M195.058 92.250 C 195.058 92.731,195.109 92.928,195.172 92.688 C 195.235 92.447,195.235 92.053,195.172 91.813 C 195.109 91.572,195.058 91.769,195.058 92.250 M195.058 94.000 C 195.058 94.481,195.109 94.678,195.172 94.438 C 195.235 94.197,195.235 93.803,195.172 93.563 C 195.109 93.322,195.058 93.519,195.058 94.000 M195.058 96.500 C 195.058 96.981,195.109 97.178,195.172 96.938 C 195.235 96.697,195.235 96.303,195.172 96.063 C 195.109 95.822,195.058 96.019,195.058 96.500 M195.063 97.750 C 195.125 97.981,195.492 98.139,196.019 98.160 C 196.803 98.192,196.812 98.185,196.126 98.075 C 195.714 98.009,195.283 97.824,195.169 97.665 C 195.029 97.469,194.995 97.497,195.063 97.750 M197.313 98.172 C 197.553 98.235,197.947 98.235,198.188 98.172 C 198.428 98.109,198.231 98.058,197.750 98.058 C 197.269 98.058,197.072 98.109,197.313 98.172 M199.813 98.172 C 200.053 98.235,200.447 98.235,200.688 98.172 C 200.928 98.109,200.731 98.058,200.250 98.058 C 199.769 98.058,199.572 98.109,199.813 98.172 M201.813 98.179 C 202.191 98.236,202.809 98.236,203.188 98.179 C 203.566 98.122,203.256 98.075,202.500 98.075 C 201.744 98.075,201.434 98.122,201.813 98.179 M178.111 187.823 C 178.042 188.000,178.018 189.941,178.057 192.135 L 178.127 196.125 178.251 191.812 C 178.373 187.576,178.359 187.176,178.111 187.823 M212.096 187.860 C 212.020 188.059,212.002 188.424,212.056 188.673 C 212.117 188.955,212.202 188.820,212.283 188.313 C 212.420 187.461,212.331 187.248,212.096 187.860 M195.068 189.250 C 195.068 189.869,195.117 190.122,195.176 189.813 C 195.236 189.503,195.236 188.997,195.176 188.688 C 195.117 188.378,195.068 188.631,195.068 189.250 M195.072 191.625 C 195.073 192.313,195.122 192.564,195.179 192.184 C 195.237 191.804,195.235 191.242,195.176 190.934 C 195.117 190.627,195.070 190.938,195.072 191.625 M186.558 191.500 C 186.558 191.981,186.609 192.178,186.672 191.938 C 186.735 191.697,186.735 191.303,186.672 191.063 C 186.609 190.822,186.558 191.019,186.558 191.500 M195.058 193.750 C 195.058 194.231,195.109 194.428,195.172 194.188 C 195.235 193.947,195.235 193.553,195.172 193.313 C 195.109 193.072,195.058 193.269,195.058 193.750 M186.558 194.000 C 186.558 194.481,186.609 194.678,186.672 194.438 C 186.735 194.197,186.735 193.803,186.672 193.563 C 186.609 193.322,186.558 193.519,186.558 194.000 M186.520 195.431 C 186.500 195.980,186.441 195.989,182.438 196.063 L 178.375 196.138 182.445 196.194 C 186.657 196.252,187.055 196.158,186.668 195.196 C 186.597 195.019,186.531 195.125,186.520 195.431 M196.440 196.177 C 196.751 196.237,197.201 196.234,197.440 196.172 C 197.679 196.109,197.425 196.060,196.875 196.063 C 196.325 196.066,196.129 196.117,196.440 196.177 M199.822 196.185 C 200.617 196.235,201.855 196.234,202.572 196.184 C 203.288 196.134,202.637 196.093,201.125 196.094 C 199.613 196.094,199.026 196.135,199.822 196.185 M215.324 196.186 C 216.396 196.233,218.083 196.233,219.074 196.185 C 220.065 196.138,219.188 196.100,217.125 196.100 C 215.063 196.100,214.252 196.139,215.324 196.186 M197.875 302.723 C 191.349 303.902,188.775 312.291,193.492 317.008 C 198.771 322.287,207.854 318.474,207.821 310.992 C 207.798 305.738,203.047 301.788,197.875 302.723 M224.690 302.677 C 225.001 302.737,225.451 302.734,225.690 302.672 C 225.929 302.609,225.675 302.560,225.125 302.563 C 224.575 302.566,224.379 302.617,224.690 302.677 M171.109 306.313 L 170.375 307.125 171.188 306.391 C 171.945 305.706,172.115 305.500,171.922 305.500 C 171.879 305.500,171.513 305.866,171.109 306.313 M161.058 333.250 C 161.058 333.731,161.109 333.928,161.172 333.688 C 161.235 333.447,161.235 333.053,161.172 332.813 C 161.109 332.572,161.058 332.769,161.058 333.250 " stroke="none" fill="#73aad3" fill-rule="evenodd"></path><path id="path4" d="M195.222 64.806 C 195.130 67.503,195.222 72.306,195.369 72.452 C 195.569 72.652,202.656 72.772,203.318 72.587 C 203.724 72.473,203.756 72.106,203.693 68.294 L 203.625 64.125 199.438 64.056 L 195.250 63.988 195.222 64.806 M182.582 74.375 C 182.583 75.338,182.628 75.701,182.682 75.182 C 182.737 74.663,182.736 73.876,182.680 73.432 C 182.625 72.988,182.581 73.412,182.582 74.375 M195.497 89.708 C 195.348 89.759,195.250 91.421,195.250 93.896 L 195.250 98.000 196.000 98.019 C 196.412 98.029,197.762 98.037,199.000 98.037 C 200.238 98.037,201.792 98.029,202.454 98.019 L 203.658 98.000 203.656 93.886 L 203.655 89.773 199.699 89.699 C 197.523 89.658,195.632 89.662,195.497 89.708 M171.563 166.422 C 171.803 166.485,172.197 166.485,172.438 166.422 C 172.678 166.359,172.481 166.308,172.000 166.308 C 171.519 166.308,171.322 166.359,171.563 166.422 M174.081 166.411 C 174.481 166.528,174.527 166.782,174.456 168.511 C 174.411 169.592,174.465 170.387,174.574 170.277 C 175.043 169.805,174.654 166.383,174.125 166.330 C 173.702 166.287,173.695 166.299,174.081 166.411 M162.440 170.427 C 162.751 170.487,163.201 170.484,163.440 170.422 C 163.679 170.359,163.425 170.310,162.875 170.313 C 162.325 170.316,162.129 170.367,162.440 170.427 M164.438 170.426 C 164.747 170.486,165.253 170.486,165.563 170.426 C 165.872 170.367,165.619 170.318,165.000 170.318 C 164.381 170.318,164.128 170.367,164.438 170.426 M227.063 170.422 C 227.303 170.485,227.697 170.485,227.938 170.422 C 228.178 170.359,227.981 170.308,227.500 170.308 C 227.019 170.308,226.822 170.359,227.063 170.422 M228.940 170.427 C 229.251 170.487,229.701 170.484,229.940 170.422 C 230.179 170.359,229.925 170.310,229.375 170.313 C 228.825 170.316,228.629 170.367,228.940 170.427 M231.563 170.434 C 232.216 170.485,233.284 170.485,233.938 170.434 C 234.591 170.382,234.056 170.340,232.750 170.340 C 231.444 170.340,230.909 170.382,231.563 170.434 M178.354 187.729 C 178.297 187.786,178.250 189.671,178.250 191.917 L 178.250 196.000 182.375 196.000 C 186.131 196.000,186.501 195.961,186.516 195.563 C 186.543 194.837,186.550 188.147,186.524 187.835 C 186.501 187.560,178.626 187.458,178.354 187.729 M195.250 191.813 L 195.250 196.000 199.465 196.000 L 203.679 196.000 203.660 191.764 L 203.641 187.528 199.445 187.576 L 195.250 187.625 195.250 191.813 M212.354 187.729 C 212.297 187.786,212.250 189.671,212.250 191.917 L 212.250 196.000 216.506 196.000 L 220.762 196.000 220.694 191.813 L 220.625 187.625 216.542 187.625 C 214.296 187.625,212.412 187.672,212.354 187.729 M174.070 289.934 C 174.727 289.986,175.740 289.985,176.320 289.933 C 176.900 289.880,176.363 289.838,175.125 289.839 C 173.887 289.840,173.413 289.882,174.070 289.934 M191.313 289.935 C 192.103 289.984,193.397 289.984,194.188 289.935 C 194.978 289.885,194.331 289.845,192.750 289.845 C 191.169 289.845,190.522 289.885,191.313 289.935 M207.438 289.933 C 208.022 289.986,208.978 289.986,209.563 289.933 C 210.147 289.880,209.669 289.837,208.500 289.837 C 207.331 289.837,206.853 289.880,207.438 289.933 M224.938 289.934 C 225.659 289.985,226.841 289.985,227.563 289.934 C 228.284 289.884,227.694 289.842,226.250 289.842 C 224.806 289.842,224.216 289.884,224.938 289.934 M168.323 293.936 C 169.257 293.984,170.719 293.983,171.573 293.935 C 172.427 293.886,171.662 293.847,169.875 293.847 C 168.088 293.848,167.389 293.887,168.323 293.936 M182.940 293.927 C 183.251 293.987,183.701 293.984,183.940 293.922 C 184.179 293.859,183.925 293.810,183.375 293.813 C 182.825 293.816,182.629 293.867,182.940 293.927 M185.947 293.935 C 186.812 293.984,188.162 293.984,188.947 293.934 C 189.733 293.885,189.025 293.845,187.375 293.845 C 185.725 293.846,185.083 293.886,185.947 293.935 M200.440 293.927 C 200.751 293.987,201.201 293.984,201.440 293.922 C 201.679 293.859,201.425 293.810,200.875 293.813 C 200.325 293.816,200.129 293.867,200.440 293.927 M203.196 293.935 C 203.922 293.985,205.047 293.985,205.696 293.933 C 206.344 293.882,205.750 293.841,204.375 293.841 C 203.000 293.842,202.469 293.884,203.196 293.935 M216.190 293.927 C 216.501 293.987,216.951 293.984,217.190 293.922 C 217.429 293.859,217.175 293.810,216.625 293.813 C 216.075 293.816,215.879 293.867,216.190 293.927 M219.313 293.935 C 220.241 293.983,221.759 293.983,222.688 293.935 C 223.616 293.887,222.856 293.848,221.000 293.848 C 219.144 293.848,218.384 293.887,219.313 293.935 M233.690 293.927 C 234.001 293.987,234.451 293.984,234.690 293.922 C 234.929 293.859,234.675 293.810,234.125 293.813 C 233.575 293.816,233.379 293.867,233.690 293.927 M235.813 293.929 C 236.191 293.986,236.809 293.986,237.188 293.929 C 237.566 293.872,237.256 293.825,236.500 293.825 C 235.744 293.825,235.434 293.872,235.813 293.929 M165.313 302.672 C 165.553 302.735,165.947 302.735,166.188 302.672 C 166.428 302.609,166.231 302.558,165.750 302.558 C 165.269 302.558,165.072 302.609,165.313 302.672 M170.063 302.672 C 170.303 302.735,170.697 302.735,170.938 302.672 C 171.178 302.609,170.981 302.558,170.500 302.558 C 170.019 302.558,169.822 302.609,170.063 302.672 M200.255 397.619 C 199.552 398.345,199.348 398.438,199.019 398.182 C 198.669 397.909,198.664 397.925,198.978 398.324 C 199.283 398.713,201.250 397.415,201.250 396.824 C 201.250 396.641,201.043 396.807,200.255 397.619 " stroke="none" fill="#fafafa" fill-rule="evenodd"></path><path id="path5" d="M203.558 14.750 C 203.558 15.231,203.609 15.428,203.672 15.188 C 203.735 14.947,203.735 14.553,203.672 14.313 C 203.609 14.072,203.558 14.269,203.558 14.750 M203.558 17.250 C 203.558 17.731,203.609 17.928,203.672 17.688 C 203.735 17.447,203.735 17.053,203.672 16.813 C 203.609 16.572,203.558 16.769,203.558 17.250 M203.558 30.500 C 203.558 30.981,203.609 31.178,203.672 30.938 C 203.735 30.697,203.735 30.303,203.672 30.063 C 203.609 29.822,203.558 30.019,203.558 30.500 M203.558 37.250 C 203.558 37.731,203.609 37.928,203.672 37.688 C 203.735 37.447,203.735 37.053,203.672 36.813 C 203.609 36.572,203.558 36.769,203.558 37.250 M186.563 66.875 C 186.566 67.425,186.617 67.621,186.677 67.310 C 186.737 66.999,186.734 66.549,186.672 66.310 C 186.609 66.071,186.560 66.325,186.563 66.875 M174.563 76.922 C 174.803 76.985,175.197 76.985,175.438 76.922 C 175.678 76.859,175.481 76.808,175.000 76.808 C 174.519 76.808,174.322 76.859,174.563 76.922 M176.440 76.927 C 176.751 76.987,177.201 76.984,177.440 76.922 C 177.679 76.859,177.425 76.810,176.875 76.813 C 176.325 76.816,176.129 76.867,176.440 76.927 M179.552 76.935 C 180.474 76.983,182.049 76.983,183.052 76.936 C 184.054 76.888,183.300 76.849,181.375 76.849 C 179.450 76.848,178.629 76.887,179.552 76.935 M187.813 76.922 C 188.053 76.985,188.447 76.985,188.688 76.922 C 188.928 76.859,188.731 76.808,188.250 76.808 C 187.769 76.808,187.572 76.859,187.813 76.922 M190.313 76.922 C 190.553 76.985,190.947 76.985,191.188 76.922 C 191.428 76.859,191.231 76.808,190.750 76.808 C 190.269 76.808,190.072 76.859,190.313 76.922 M192.063 76.922 C 192.303 76.985,192.697 76.985,192.938 76.922 C 193.178 76.859,192.981 76.808,192.500 76.808 C 192.019 76.808,191.822 76.859,192.063 76.922 M193.940 76.927 C 194.251 76.987,194.701 76.984,194.940 76.922 C 195.179 76.859,194.925 76.810,194.375 76.813 C 193.825 76.816,193.629 76.867,193.940 76.927 M197.052 76.935 C 197.974 76.983,199.549 76.983,200.552 76.936 C 201.554 76.888,200.800 76.849,198.875 76.849 C 196.950 76.848,196.129 76.887,197.052 76.935 M203.563 76.922 C 203.803 76.985,204.197 76.985,204.438 76.922 C 204.678 76.859,204.481 76.808,204.000 76.808 C 203.519 76.808,203.322 76.859,203.563 76.922 M211.688 76.926 C 211.997 76.986,212.503 76.986,212.813 76.926 C 213.122 76.867,212.869 76.818,212.250 76.818 C 211.631 76.818,211.378 76.867,211.688 76.926 M214.822 76.935 C 215.617 76.985,216.855 76.984,217.572 76.934 C 218.288 76.884,217.637 76.843,216.125 76.844 C 214.613 76.844,214.026 76.885,214.822 76.935 M223.563 76.922 C 223.803 76.985,224.197 76.985,224.438 76.922 C 224.678 76.859,224.481 76.808,224.000 76.808 C 223.519 76.808,223.322 76.859,223.563 76.922 M225.313 76.922 C 225.553 76.985,225.947 76.985,226.188 76.922 C 226.428 76.859,226.231 76.808,225.750 76.808 C 225.269 76.808,225.072 76.859,225.313 76.922 M227.316 76.929 C 227.696 76.987,228.258 76.985,228.566 76.926 C 228.873 76.867,228.563 76.820,227.875 76.822 C 227.188 76.823,226.936 76.872,227.316 76.929 M169.563 77.875 C 169.566 78.425,169.617 78.621,169.677 78.310 C 169.737 77.999,169.734 77.549,169.672 77.310 C 169.609 77.071,169.560 77.325,169.563 77.875 M169.563 91.125 C 169.566 91.675,169.617 91.871,169.677 91.560 C 169.737 91.249,169.734 90.799,169.672 90.560 C 169.609 90.321,169.560 90.575,169.563 91.125 M169.563 97.625 C 169.566 98.175,169.617 98.371,169.677 98.060 C 169.737 97.749,169.734 97.299,169.672 97.060 C 169.609 96.821,169.560 97.075,169.563 97.625 M169.558 104.500 C 169.558 104.981,169.609 105.178,169.672 104.938 C 169.735 104.697,169.735 104.303,169.672 104.063 C 169.609 103.822,169.558 104.019,169.558 104.500 M169.558 111.250 C 169.558 111.731,169.609 111.928,169.672 111.688 C 169.735 111.447,169.735 111.053,169.672 110.813 C 169.609 110.572,169.558 110.769,169.558 111.250 M179.690 110.927 C 180.001 110.987,180.451 110.984,180.690 110.922 C 180.929 110.859,180.675 110.810,180.125 110.813 C 179.575 110.816,179.379 110.867,179.690 110.927 M181.563 110.922 C 181.803 110.985,182.197 110.985,182.438 110.922 C 182.678 110.859,182.481 110.808,182.000 110.808 C 181.519 110.808,181.322 110.859,181.563 110.922 M187.052 110.935 C 187.974 110.983,189.549 110.983,190.552 110.936 C 191.554 110.888,190.800 110.849,188.875 110.849 C 186.950 110.848,186.129 110.887,187.052 110.935 M197.313 110.922 C 197.553 110.985,197.947 110.985,198.188 110.922 C 198.428 110.859,198.231 110.808,197.750 110.808 C 197.269 110.808,197.072 110.859,197.313 110.922 M199.063 110.922 C 199.303 110.985,199.697 110.985,199.938 110.922 C 200.178 110.859,199.981 110.808,199.500 110.808 C 199.019 110.808,198.822 110.859,199.063 110.922 M205.323 110.936 C 206.257 110.984,207.719 110.983,208.573 110.935 C 209.427 110.886,208.662 110.847,206.875 110.847 C 205.088 110.848,204.389 110.887,205.323 110.936 M219.063 110.922 C 219.303 110.985,219.697 110.985,219.938 110.922 C 220.178 110.859,219.981 110.808,219.500 110.808 C 219.019 110.808,218.822 110.859,219.063 110.922 M178.058 112.250 C 178.058 112.731,178.109 112.928,178.172 112.688 C 178.235 112.447,178.235 112.053,178.172 111.813 C 178.109 111.572,178.058 111.769,178.058 112.250 M178.058 114.750 C 178.058 115.231,178.109 115.428,178.172 115.188 C 178.235 114.947,178.235 114.553,178.172 114.313 C 178.109 114.072,178.058 114.269,178.058 114.750 M178.068 119.250 C 178.068 119.869,178.117 120.122,178.176 119.813 C 178.236 119.503,178.236 118.997,178.176 118.688 C 178.117 118.378,178.068 118.631,178.068 119.250 M169.558 124.500 C 169.558 124.981,169.609 125.178,169.672 124.938 C 169.735 124.697,169.735 124.303,169.672 124.063 C 169.609 123.822,169.558 124.019,169.558 124.500 M169.558 131.000 C 169.558 131.481,169.609 131.678,169.672 131.438 C 169.735 131.197,169.735 130.803,169.672 130.563 C 169.609 130.322,169.558 130.519,169.558 131.000 M178.068 132.500 C 178.068 133.119,178.117 133.372,178.176 133.063 C 178.236 132.753,178.236 132.247,178.176 131.938 C 178.117 131.628,178.068 131.881,178.068 132.500 M169.563 137.625 C 169.566 138.175,169.617 138.371,169.677 138.060 C 169.737 137.749,169.734 137.299,169.672 137.060 C 169.609 136.821,169.560 137.075,169.563 137.625 M169.558 144.500 C 169.558 144.981,169.609 145.178,169.672 144.938 C 169.735 144.697,169.735 144.303,169.672 144.063 C 169.609 143.822,169.558 144.019,169.558 144.500 M178.058 145.500 C 178.058 145.981,178.109 146.178,178.172 145.938 C 178.235 145.697,178.235 145.303,178.172 145.063 C 178.109 144.822,178.058 145.019,178.058 145.500 M178.058 148.000 C 178.058 148.481,178.109 148.678,178.172 148.438 C 178.235 148.197,178.235 147.803,178.172 147.563 C 178.109 147.322,178.058 147.519,178.058 148.000 M169.558 151.000 C 169.558 151.481,169.609 151.678,169.672 151.438 C 169.735 151.197,169.735 150.803,169.672 150.563 C 169.609 150.322,169.558 150.519,169.558 151.000 M178.058 152.250 C 178.058 152.731,178.109 152.928,178.172 152.688 C 178.235 152.447,178.235 152.053,178.172 151.813 C 178.109 151.572,178.058 151.769,178.058 152.250 M169.558 157.750 C 169.558 158.231,169.609 158.428,169.672 158.188 C 169.735 157.947,169.735 157.553,169.672 157.313 C 169.609 157.072,169.558 157.269,169.558 157.750 M161.813 170.672 C 162.053 170.735,162.447 170.735,162.688 170.672 C 162.928 170.609,162.731 170.558,162.250 170.558 C 161.769 170.558,161.572 170.609,161.813 170.672 M179.313 170.672 C 179.553 170.735,179.947 170.735,180.188 170.672 C 180.428 170.609,180.231 170.558,179.750 170.558 C 179.269 170.558,179.072 170.609,179.313 170.672 M195.063 170.672 C 195.303 170.735,195.697 170.735,195.938 170.672 C 196.178 170.609,195.981 170.558,195.500 170.558 C 195.019 170.558,194.822 170.609,195.063 170.672 M212.563 170.672 C 212.803 170.735,213.197 170.735,213.438 170.672 C 213.678 170.609,213.481 170.558,213.000 170.558 C 212.519 170.558,212.322 170.609,212.563 170.672 M226.190 170.677 C 226.501 170.737,226.951 170.734,227.190 170.672 C 227.429 170.609,227.175 170.560,226.625 170.563 C 226.075 170.566,225.879 170.617,226.190 170.677 M228.313 170.672 C 228.553 170.735,228.947 170.735,229.188 170.672 C 229.428 170.609,229.231 170.558,228.750 170.558 C 228.269 170.558,228.072 170.609,228.313 170.672 M161.086 173.625 C 161.087 174.725,161.131 175.144,161.183 174.556 C 161.236 173.968,161.235 173.068,161.182 172.556 C 161.128 172.044,161.085 172.525,161.086 173.625 M161.068 177.000 C 161.068 177.619,161.117 177.872,161.176 177.563 C 161.236 177.253,161.236 176.747,161.176 176.438 C 161.117 176.128,161.068 176.381,161.068 177.000 M161.072 179.375 C 161.073 180.063,161.122 180.314,161.179 179.934 C 161.237 179.554,161.235 178.992,161.176 178.684 C 161.117 178.377,161.070 178.688,161.072 179.375 M161.068 183.500 C 161.068 184.119,161.117 184.372,161.176 184.063 C 161.236 183.753,161.236 183.247,161.176 182.938 C 161.117 182.628,161.068 182.881,161.068 183.500 M161.086 186.875 C 161.087 187.975,161.131 188.394,161.183 187.806 C 161.236 187.218,161.235 186.318,161.182 185.806 C 161.128 185.294,161.085 185.775,161.086 186.875 M161.068 190.250 C 161.068 190.869,161.117 191.122,161.176 190.813 C 161.236 190.503,161.236 189.997,161.176 189.688 C 161.117 189.378,161.068 189.631,161.068 190.250 M161.087 193.500 C 161.087 194.669,161.130 195.147,161.183 194.563 C 161.236 193.978,161.236 193.022,161.183 192.438 C 161.130 191.853,161.087 192.331,161.087 193.500 M161.072 196.875 C 161.073 197.563,161.122 197.814,161.179 197.434 C 161.237 197.054,161.235 196.492,161.176 196.184 C 161.117 195.877,161.070 196.188,161.072 196.875 M161.086 200.125 C 161.087 201.225,161.131 201.644,161.183 201.056 C 161.236 200.468,161.235 199.568,161.182 199.056 C 161.128 198.544,161.085 199.025,161.086 200.125 M161.068 203.500 C 161.068 204.119,161.117 204.372,161.176 204.063 C 161.236 203.753,161.236 203.247,161.176 202.938 C 161.117 202.628,161.068 202.881,161.068 203.500 M161.086 206.875 C 161.087 207.975,161.131 208.394,161.183 207.806 C 161.236 207.218,161.235 206.318,161.182 205.806 C 161.128 205.294,161.085 205.775,161.086 206.875 M161.068 210.250 C 161.068 210.869,161.117 211.122,161.176 210.813 C 161.236 210.503,161.236 209.997,161.176 209.688 C 161.117 209.378,161.068 209.631,161.068 210.250 M161.086 213.375 C 161.087 214.475,161.131 214.894,161.183 214.306 C 161.236 213.718,161.235 212.818,161.182 212.306 C 161.128 211.794,161.085 212.275,161.086 213.375 M169.558 213.750 C 169.558 214.231,169.609 214.428,169.672 214.188 C 169.735 213.947,169.735 213.553,169.672 213.313 C 169.609 213.072,169.558 213.269,169.558 213.750 M161.072 216.875 C 161.073 217.563,161.122 217.814,161.179 217.434 C 161.237 217.054,161.235 216.492,161.176 216.184 C 161.117 215.877,161.070 216.188,161.072 216.875 M161.086 220.125 C 161.087 221.225,161.131 221.644,161.183 221.056 C 161.236 220.468,161.235 219.568,161.182 219.056 C 161.128 218.544,161.085 219.025,161.086 220.125 M161.068 223.500 C 161.068 224.119,161.117 224.372,161.176 224.063 C 161.236 223.753,161.236 223.247,161.176 222.938 C 161.117 222.628,161.068 222.881,161.068 223.500 M161.087 226.750 C 161.087 227.919,161.130 228.397,161.183 227.813 C 161.236 227.228,161.236 226.272,161.183 225.688 C 161.130 225.103,161.087 225.581,161.087 226.750 M161.072 230.125 C 161.073 230.813,161.122 231.064,161.179 230.684 C 161.237 230.304,161.235 229.742,161.176 229.434 C 161.117 229.127,161.070 229.438,161.072 230.125 M161.072 232.625 C 161.073 233.313,161.122 233.564,161.179 233.184 C 161.237 232.804,161.235 232.242,161.176 231.934 C 161.117 231.627,161.070 231.938,161.072 232.625 M161.068 236.750 C 161.068 237.369,161.117 237.622,161.176 237.313 C 161.236 237.003,161.236 236.497,161.176 236.188 C 161.117 235.878,161.068 236.131,161.068 236.750 M161.086 240.125 C 161.087 241.225,161.131 241.644,161.183 241.056 C 161.236 240.468,161.235 239.568,161.182 239.056 C 161.128 238.544,161.085 239.025,161.086 240.125 M161.068 243.500 C 161.068 244.119,161.117 244.372,161.176 244.063 C 161.236 243.753,161.236 243.247,161.176 242.938 C 161.117 242.628,161.068 242.881,161.068 243.500 M161.068 247.750 C 161.068 248.369,161.117 248.622,161.176 248.313 C 161.236 248.003,161.236 247.497,161.176 247.188 C 161.117 246.878,161.068 247.131,161.068 247.750 M161.072 250.125 C 161.073 250.813,161.122 251.064,161.179 250.684 C 161.237 250.304,161.235 249.742,161.176 249.434 C 161.117 249.127,161.070 249.438,161.072 250.125 M161.068 254.250 C 161.068 254.869,161.117 255.122,161.176 254.813 C 161.236 254.503,161.236 253.997,161.176 253.688 C 161.117 253.378,161.068 253.631,161.068 254.250 M161.068 256.750 C 161.068 257.369,161.117 257.622,161.176 257.313 C 161.236 257.003,161.236 256.497,161.176 256.188 C 161.117 255.878,161.068 256.131,161.068 256.750 M161.058 258.750 C 161.058 259.231,161.109 259.428,161.172 259.188 C 161.235 258.947,161.235 258.553,161.172 258.313 C 161.109 258.072,161.058 258.269,161.058 258.750 M161.068 261.000 C 161.068 261.619,161.117 261.872,161.176 261.563 C 161.236 261.253,161.236 260.747,161.176 260.438 C 161.117 260.128,161.068 260.381,161.068 261.000 M161.072 263.375 C 161.073 264.063,161.122 264.314,161.179 263.934 C 161.237 263.554,161.235 262.992,161.176 262.684 C 161.117 262.377,161.070 262.688,161.072 263.375 M161.068 267.500 C 161.068 268.119,161.117 268.372,161.176 268.063 C 161.236 267.753,161.236 267.247,161.176 266.938 C 161.117 266.628,161.068 266.881,161.068 267.500 M161.072 270.125 C 161.073 270.813,161.122 271.064,161.179 270.684 C 161.237 270.304,161.235 269.742,161.176 269.434 C 161.117 269.127,161.070 269.438,161.072 270.125 M161.068 274.250 C 161.068 274.869,161.117 275.122,161.176 274.813 C 161.236 274.503,161.236 273.997,161.176 273.688 C 161.117 273.378,161.068 273.631,161.068 274.250 M161.068 276.750 C 161.068 277.369,161.117 277.622,161.176 277.313 C 161.236 277.003,161.236 276.497,161.176 276.188 C 161.117 275.878,161.068 276.131,161.068 276.750 M161.058 278.750 C 161.058 279.231,161.109 279.428,161.172 279.188 C 161.235 278.947,161.235 278.553,161.172 278.313 C 161.109 278.072,161.058 278.269,161.058 278.750 M161.068 281.000 C 161.068 281.619,161.117 281.872,161.176 281.563 C 161.236 281.253,161.236 280.747,161.176 280.438 C 161.117 280.128,161.068 280.381,161.068 281.000 M161.072 283.375 C 161.073 284.063,161.122 284.314,161.179 283.934 C 161.237 283.554,161.235 282.992,161.176 282.684 C 161.117 282.377,161.070 282.688,161.072 283.375 M161.068 287.500 C 161.068 288.119,161.117 288.372,161.176 288.063 C 161.236 287.753,161.236 287.247,161.176 286.938 C 161.117 286.628,161.068 286.881,161.068 287.500 M166.563 294.172 C 166.803 294.235,167.197 294.235,167.438 294.172 C 167.678 294.109,167.481 294.058,167.000 294.058 C 166.519 294.058,166.322 294.109,166.563 294.172 M161.072 296.625 C 161.073 297.313,161.122 297.564,161.179 297.184 C 161.237 296.804,161.235 296.242,161.176 295.934 C 161.117 295.627,161.070 295.938,161.072 296.625 M161.068 300.750 C 161.068 301.369,161.117 301.622,161.176 301.313 C 161.236 301.003,161.236 300.497,161.176 300.188 C 161.117 299.878,161.068 300.131,161.068 300.750 M193.548 304.912 L 192.375 306.074 193.625 304.994 C 194.313 304.401,194.922 303.878,194.979 303.832 C 195.036 303.787,195.002 303.750,194.902 303.750 C 194.802 303.750,194.193 304.273,193.548 304.912 M226.375 305.250 C 226.912 305.800,227.408 306.250,227.476 306.250 C 227.545 306.250,227.162 305.800,226.625 305.250 C 226.088 304.700,225.592 304.250,225.524 304.250 C 225.455 304.250,225.838 304.700,226.375 305.250 M220.250 311.125 C 220.997 311.881,221.664 312.500,221.733 312.500 C 221.802 312.500,221.247 311.881,220.500 311.125 C 219.753 310.369,219.086 309.750,219.017 309.750 C 218.948 309.750,219.503 310.369,220.250 311.125 M211.366 323.063 L 210.125 324.375 211.438 323.134 C 212.657 321.982,212.865 321.750,212.678 321.750 C 212.639 321.750,212.048 322.341,211.366 323.063 M201.109 396.313 L 200.375 397.125 201.188 396.391 C 201.945 395.706,202.115 395.500,201.922 395.500 C 201.879 395.500,201.513 395.866,201.109 396.313 M199.876 397.749 C 199.531 398.130,199.344 398.182,199.087 397.969 C 198.902 397.815,198.750 397.745,198.750 397.814 C 198.750 398.396,199.479 398.429,200.003 397.872 C 200.324 397.530,200.529 397.250,200.457 397.250 C 200.386 397.250,200.124 397.475,199.876 397.749 " stroke="none" fill="#6f5f40" fill-rule="evenodd"></path><path id="path6" d="M214.188 72.676 C 214.497 72.736,215.003 72.736,215.313 72.676 C 215.622 72.617,215.369 72.568,214.750 72.568 C 214.131 72.568,213.878 72.617,214.188 72.676 M180.313 213.172 C 180.553 213.235,180.947 213.235,181.188 213.172 C 181.428 213.109,181.231 213.058,180.750 213.058 C 180.269 213.058,180.072 213.109,180.313 213.172 " stroke="none" fill="#b48639" fill-rule="evenodd"></path><path id="path7" d="M206.313 213.172 C 206.553 213.235,206.947 213.235,207.188 213.172 C 207.428 213.109,207.231 213.058,206.750 213.058 C 206.269 213.058,206.072 213.109,206.313 213.172 M219.063 213.172 C 219.303 213.235,219.697 213.235,219.938 213.172 C 220.178 213.109,219.981 213.058,219.500 213.058 C 219.019 213.058,218.822 213.109,219.063 213.172 M221.566 213.179 C 221.946 213.237,222.508 213.235,222.816 213.176 C 223.123 213.117,222.813 213.070,222.125 213.072 C 221.438 213.073,221.186 213.122,221.566 213.179 M223.813 213.172 C 224.053 213.235,224.447 213.235,224.688 213.172 C 224.928 213.109,224.731 213.058,224.250 213.058 C 223.769 213.058,223.572 213.109,223.813 213.172 M178.250 311.375 C 177.643 311.994,177.202 312.500,177.271 312.500 C 177.340 312.500,177.893 311.994,178.500 311.375 C 179.107 310.756,179.548 310.250,179.479 310.250 C 179.410 310.250,178.857 310.756,178.250 311.375 " stroke="none" fill="#966c24" fill-rule="evenodd"></path><path id="path8" d="M220.558 159.250 C 220.558 159.731,220.609 159.928,220.672 159.688 C 220.735 159.447,220.735 159.053,220.672 158.813 C 220.609 158.572,220.558 158.769,220.558 159.250 M220.601 165.750 C 220.619 166.232,220.768 166.384,221.250 166.416 C 221.771 166.450,221.784 166.437,221.328 166.338 C 221.015 166.270,220.737 165.984,220.678 165.672 C 220.595 165.224,220.581 165.238,220.601 165.750 M222.313 166.422 C 222.553 166.485,222.947 166.485,223.188 166.422 C 223.428 166.359,223.231 166.308,222.750 166.308 C 222.269 166.308,222.072 166.359,222.313 166.422 M209.563 170.422 C 209.803 170.485,210.197 170.485,210.438 170.422 C 210.678 170.359,210.481 170.308,210.000 170.308 C 209.519 170.308,209.322 170.359,209.563 170.422 M211.313 170.422 C 211.553 170.485,211.947 170.485,212.188 170.422 C 212.428 170.359,212.231 170.308,211.750 170.308 C 211.269 170.308,211.072 170.359,211.313 170.422 M213.813 170.422 C 214.053 170.485,214.447 170.485,214.688 170.422 C 214.928 170.359,214.731 170.308,214.250 170.308 C 213.769 170.308,213.572 170.359,213.813 170.422 M215.816 170.429 C 216.196 170.487,216.758 170.485,217.066 170.426 C 217.373 170.367,217.063 170.320,216.375 170.322 C 215.688 170.323,215.436 170.372,215.816 170.429 M229.058 242.000 C 229.058 242.481,229.109 242.678,229.172 242.438 C 229.235 242.197,229.235 241.803,229.172 241.563 C 229.109 241.322,229.058 241.519,229.058 242.000 M229.058 248.750 C 229.058 249.231,229.109 249.428,229.172 249.188 C 229.235 248.947,229.235 248.553,229.172 248.313 C 229.109 248.072,229.058 248.269,229.058 248.750 M213.438 281.176 C 213.747 281.236,214.253 281.236,214.563 281.176 C 214.872 281.117,214.619 281.068,214.000 281.068 C 213.381 281.068,213.128 281.117,213.438 281.176 M215.563 281.172 C 215.803 281.235,216.197 281.235,216.438 281.172 C 216.678 281.109,216.481 281.058,216.000 281.058 C 215.519 281.058,215.322 281.109,215.563 281.172 M217.682 281.180 C 218.126 281.236,218.913 281.237,219.432 281.182 C 219.951 281.128,219.588 281.083,218.625 281.082 C 217.662 281.081,217.238 281.125,217.682 281.180 M226.566 281.179 C 226.946 281.237,227.508 281.235,227.816 281.176 C 228.123 281.117,227.813 281.070,227.125 281.072 C 226.438 281.073,226.186 281.122,226.566 281.179 M211.359 323.313 L 210.625 324.125 211.438 323.391 C 212.195 322.706,212.365 322.500,212.172 322.500 C 212.129 322.500,211.763 322.866,211.359 323.313 " stroke="none" fill="#cc9424" fill-rule="evenodd"></path></g></svg>