<?xml version="1.0" encoding="iso-8859-1"?>
<!-- Generator: Adobe Illustrator 19.0.0, SVG Export Plug-In . SVG Version: 6.00 Build 0)  -->
<svg version="1.1" id="Layer_1" xmlns="http://www.w3.org/2000/svg" xmlns:xlink="http://www.w3.org/1999/xlink" x="0px" y="0px"
	 viewBox="0 0 512 512" style="enable-background:new 0 0 512 512;" xml:space="preserve">
<g>
	<polygon style="fill:#FAC15C;" points="431.016,127.228 386.1,82.313 413.756,54.656 464.204,49.79 458.672,99.572 	"/>
	
		<rect x="306.64" y="74.368" transform="matrix(-0.7071 -0.7071 0.7071 -0.7071 490.1642 523.8589)" style="fill:#FAC15C;" width="93.873" height="172.09"/>
</g>
<rect x="360.063" y="96.492" transform="matrix(-0.7071 -0.7071 0.7071 -0.7071 512.3007 577.2753)" style="fill:#F9B233;" width="31.29" height="172.09"/>
<rect x="158.247" y="191.47" transform="matrix(-0.7071 -0.7071 0.7071 -0.7071 169.6742 656.6013)" style="fill:#FAC15C;" width="125.153" height="203.381"/>
<rect x="231.688" y="221.896" transform="matrix(-0.7071 -0.7071 0.7071 -0.7071 200.0906 730.053)" style="fill:#F9B233;" width="39.112" height="203.381"/>
<g>
	
		<rect x="205.257" y="218.767" transform="matrix(-0.7071 -0.7071 0.7071 -0.7071 283.1688 609.5862)" style="fill:#1D71B8;" width="125.153" height="54.759"/>
	
		<rect x="350.889" y="92.692" transform="matrix(-0.7071 -0.7071 0.7071 -0.7071 596.994 479.6019)" style="fill:#1D71B8;" width="93.873" height="46.935"/>
</g>
<path style="fill:#F9B233;" d="M130.332,470.169C105.893,494.608,8.643,503.357,8.643,503.357s8.749-97.249,33.188-121.689"/>
<circle style="fill:#77AAD4;" cx="113.739" cy="398.263" r="18.915"/>
<path style="fill:#F9B233;" d="M138.045,391.047c2.615,8.115,0.723,17.366-5.72,23.81c-9.165,9.164-24.023,9.164-33.188,0
	c-9.165-9.165-9.165-24.024,0-33.188c6.829-6.828,16.816-8.561,25.256-5.214c-24.548-19.061-60.014-17.336-82.562,5.214
	C17.392,406.108,8.643,503.357,8.643,503.357s97.25-8.749,121.689-33.188C151.846,448.655,154.41,415.378,138.045,391.047z"/>
<g>
	
		<rect x="238.66" y="213.424" transform="matrix(-0.7071 -0.7071 0.7071 -0.7071 264.3189 551.9991)" style="fill:#FFFFFF;" width="15.644" height="15.666"/>
	
		<rect x="260.799" y="235.545" transform="matrix(-0.7071 -0.7071 0.7071 -0.7071 286.4706 605.4164)" style="fill:#FFFFFF;" width="15.644" height="15.666"/>
	
		<rect x="282.913" y="257.676" transform="matrix(-0.7071 -0.7071 0.7071 -0.7071 308.5718 658.8339)" style="fill:#FFFFFF;" width="15.644" height="15.666"/>
</g>
<g>
	<path style="fill:#1D1D1B;" d="M91.597,320.825l99.578,99.578l154.893-154.892l-99.579-99.579L91.597,320.825z M113.752,320.825
		l88.485-88.486l77.424,77.424l-88.486,88.485L113.752,320.825z M290.741,298.684l-77.424-77.424l33.172-33.172l77.424,77.424
		L290.741,298.684z"/>
	<path style="fill:#1D1D1B;" d="M86.088,326.348l-11.077,11.078l18.47,18.471c-2.442-0.254-4.91-0.391-7.399-0.391
		c-18.808,0-36.49,7.325-49.789,20.623C10.586,401.835,1.763,492.413,0.841,502.655L0,512l9.345-0.841
		c10.244-0.921,100.821-9.746,126.526-35.45c13.299-13.299,20.624-30.981,20.624-49.789c0-2.49-0.137-4.957-0.391-7.401
		l18.471,18.472l11.077-11.078L86.088,326.348z M129.372,398.262c0,4.176-1.626,8.102-4.579,11.054v0.001
		c-2.953,2.953-6.879,4.58-11.054,4.58c-4.177,0-8.102-1.627-11.055-4.581c-2.953-2.953-4.579-6.879-4.579-11.054
		c0-4.176,1.626-8.102,4.579-11.055c2.954-2.953,6.879-4.58,11.055-4.58c4.176,0,8.102,1.627,11.054,4.581
		C127.746,390.162,129.372,394.087,129.372,398.262z M124.792,464.63c-16.484,16.484-76.22,26.366-107.333,29.94
		c1.105-9.463,3.148-24.929,6.306-41.418c6.469-33.772,14.852-57.191,23.604-65.943c10.34-10.34,24.088-16.036,38.712-16.036
		c3.521,0,6.989,0.338,10.373,0.984c-1.725,1.148-3.351,2.473-4.85,3.973c-5.913,5.911-9.168,13.773-9.168,22.133
		s3.255,16.221,9.168,22.132c5.911,5.913,13.772,9.169,22.133,9.169c8.361,0,16.221-3.257,22.133-9.168
		c1.499-1.499,2.826-3.124,3.973-4.85c0.647,3.384,0.984,6.854,0.984,10.374C140.827,440.543,135.133,454.291,124.792,464.63z"/>
	<path style="fill:#1D1D1B;" d="M263.075,171.471l11.078,11.078l71.899-71.899l55.296,55.296l-71.899,71.899l11.078,11.078
		l116.165-116.166L379.24,55.305L263.075,171.471z M412.428,154.869l-55.296-55.298l22.11-22.11l55.298,55.298L412.428,154.869z"/>
	<polygon style="fill:#1D1D1B;" points="512,11.078 500.922,0 458.613,42.309 408.832,47.839 395.827,60.845 406.905,71.923 
		416.025,62.804 453.344,58.656 449.196,95.976 440.077,105.095 451.156,116.173 464.162,103.168 469.692,53.387 	"/>
</g>
<g>
	
		<rect x="421.177" y="75.15" transform="matrix(-0.7071 -0.7071 0.7071 -0.7071 673.6702 445.0089)" style="fill:#FFFFFF;" width="15.645" height="15.666"/>
	
		<rect x="388.007" y="108.326" transform="matrix(-0.7071 -0.7071 0.7071 -0.7071 593.5867 478.1894)" style="fill:#FFFFFF;" width="15.644" height="15.666"/>
</g>
<g>
</g>
<g>
</g>
<g>
</g>
<g>
</g>
<g>
</g>
<g>
</g>
<g>
</g>
<g>
</g>
<g>
</g>
<g>
</g>
<g>
</g>
<g>
</g>
<g>
</g>
<g>
</g>
<g>
</g>
</svg>
