<?xml version="1.0" standalone="no"?>
<!DOCTYPE svg PUBLIC "-//W3C//DTD SVG 20010904//EN"
 "http://www.w3.org/TR/2001/REC-SVG-20010904/DTD/svg10.dtd">
<svg version="1.0" xmlns="http://www.w3.org/2000/svg"
 width="1600.000000pt" height="1600.000000pt" viewBox="0 0 1600.000000 1600.000000"
 preserveAspectRatio="xMidYMid meet">

<g transform="translate(0.000000,1600.000000) scale(0.100000,-0.100000)"
fill="#000000" stroke="none">
<path d="M7810 15002 l0 -648 -32 -45 c-18 -24 -57 -74 -88 -110 -102 -123
-255 -312 -310 -385 -30 -40 -100 -127 -154 -194 l-99 -122 1 -195 c0 -107 2
-197 4 -199 2 -1 79 -5 171 -7 l167 -4 0 144 0 144 98 121 c53 66 106 132 117
147 11 14 44 56 75 92 30 37 81 100 113 140 31 41 68 87 81 103 l24 29 256
-320 256 -320 0 -137 c0 -154 -12 -138 100 -138 33 0 101 1 150 1 l90 1 0 198
0 197 -340 425 -340 425 0 653 0 652 -170 0 -170 0 0 -648z"/>
<path d="M6792 12912 c-4 -9 -8 -813 -7 -1787 l0 -1770 172 -3 172 -2 0 1101
c0 606 2 1103 4 1106 3 2 173 4 378 4 206 -1 587 -1 846 -1 l473 0 0 -587 c0
-324 0 -821 0 -1105 l0 -518 170 0 170 0 -2 1788 -3 1787 -1183 2 c-1096 1
-1183 0 -1190 -15z m1358 -667 l0 -175 -172 2 -173 3 -2 160 c-1 88 0 166 2
173 3 9 47 12 175 12 l170 0 0 -175z"/>
<path d="M6444 6798 l1 -2383 1533 -3 1532 -2 0 2385 0 2385 -1534 0 -1533 0
1 -2382z m934 1703 l92 -1 -2 -172 -3 -173 -150 -3 c-82 -1 -160 0 -172 3 -23
5 -23 7 -23 175 l0 169 43 3 c23 2 60 2 82 1 22 -1 82 -2 133 -2z m655 0 l117
-1 0 -176 0 -175 -172 3 -173 3 -1 175 -2 175 57 -2 c31 -1 109 -2 174 -2z
m797 -177 l0 -175 -169 1 c-120 1 -171 5 -173 13 -2 7 -4 84 -3 172 0 157 0
159 23 165 12 3 90 4 172 2 l150 -3 0 -175z m168 -853 l172 -1 0 -1360 0
-1360 -1190 0 -1190 0 -1 28 c0 39 0 2598 0 2652 l1 45 1017 -2 c560 -1 1096
-2 1191 -2z"/>
<path d="M6445 4083 c1 -87 3 -164 3 -170 2 -10 66 -13 284 -13 l281 0 -81
-75 c-308 -287 -485 -686 -484 -1095 0 -100 6 -161 22 -234 83 -378 352 -893
798 -1526 196 -277 557 -743 701 -903 4 -4 36 27 72 69 35 42 93 111 129 154
65 77 146 180 217 275 20 28 78 104 128 170 139 184 369 519 483 705 325 528
492 929 509 1226 13 229 -44 487 -158 719 -77 156 -169 284 -297 412 l-104
103 281 0 281 0 0 170 0 170 -1534 0 -1533 0 2 -157z m1682 -224 c183 -86 242
-321 124 -493 -147 -214 -465 -185 -583 53 -19 38 -23 62 -23 136 0 80 3 97
29 148 87 172 278 237 453 156z m-829 -291 c1 -134 17 -202 73 -317 88 -179
276 -323 471 -362 78 -15 228 -12 300 6 315 81 524 359 515 688 -2 53 -1 97 2
97 12 0 115 -88 173 -147 205 -214 320 -480 333 -769 5 -122 -11 -217 -60
-361 -48 -139 -169 -395 -253 -538 -10 -16 -31 -52 -47 -80 -41 -70 -173 -282
-204 -328 -14 -21 -33 -49 -41 -62 -52 -81 -132 -199 -185 -270 -22 -29 -64
-86 -92 -127 -70 -97 -132 -179 -227 -301 l-79 -100 -24 29 c-54 66 -316 419
-405 544 -365 517 -628 992 -724 1311 -25 82 -29 112 -31 235 -1 105 3 161 16
220 62 272 158 442 357 633 64 61 120 111 124 111 4 0 8 -51 8 -112z"/>
</g>
</svg>
