<?xml version="1.0" encoding="iso-8859-1"?>
<!-- Generator: Adobe Illustrator 19.0.0, SVG Export Plug-In . SVG Version: 6.00 Build 0)  -->
<svg version="1.1" id="Layer_1" xmlns="http://www.w3.org/2000/svg" xmlns:xlink="http://www.w3.org/1999/xlink" x="0px" y="0px"
	 viewBox="0 0 512 512" style="enable-background:new 0 0 512 512;" xml:space="preserve">
<g transform="translate(1 1)">
	<g>
		<polygon style="fill:#FD9808;" points="243.053,218.307 188.44,200.387 255,133.827 321.56,140.653 		"/>
		<polygon style="fill:#FD9808;" points="291.693,266.947 309.613,321.56 376.173,255 369.347,188.44 		"/>
		<polygon style="fill:#FD9808;" points="146.627,315.587 74.093,290.84 103.96,260.973 182.467,278.893 		"/>
		<polygon style="fill:#FD9808;" points="194.413,363.373 219.16,435.907 249.027,406.04 231.107,327.533 		"/>
		<path style="fill:#FD9808;" d="M38.253,423.96l-25.6-25.6c-5.973-5.973-5.973-15.36,0-21.333l6.827-6.827
			c4.267-4.267,10.24-5.12,15.36-3.413l45.227,15.36L38.253,423.96z"/>
		<path style="fill:#FD9808;" d="M86.04,471.747l25.6,25.6c5.973,5.973,15.36,5.973,21.333,0l6.827-6.827
			c4.267-4.267,5.12-10.24,3.413-15.36l-15.36-45.227L86.04,471.747z"/>
	</g>
	<path style="fill:#FFDD09;" d="M502.467,7.533C475.16,11.8,443.587,17.773,423.96,37.4L38.253,423.96l48.64,48.64L472.6,86.04
		C492.227,66.413,498.2,34.84,502.467,7.533"/>
	<path d="M86.04,480.28L86.04,480.28c-2.56,0-4.267-0.853-5.973-2.56l-48.64-48.64c-3.413-3.413-3.413-8.533,0-11.947
		l386.56-385.707C439.32,10.093,471.747,3.267,501.613-1c2.56,0,5.12,0.853,6.827,2.56c1.707,1.707,2.56,4.267,2.56,6.827
		c-4.267,29.013-11.093,62.293-32.427,83.627l-386.56,386.56C90.307,479.427,88.6,480.28,86.04,480.28z M50.2,423.96l35.84,35.84
		L466.627,80.067c15.36-15.36,22.187-39.253,25.6-62.293c-23.04,4.267-46.933,11.093-62.293,25.6L50.2,423.96z"/>
	<path d="M243.053,226.84c-0.853,0-1.707,0-2.56-0.853l-54.613-17.92c-2.56-0.853-5.12-3.413-5.973-5.973
		c-0.853-2.56,0-5.973,2.56-7.68l66.56-66.56c1.707-1.707,4.267-2.56,6.827-2.56l66.56,5.973c3.413,0,5.973,2.56,6.827,5.973
		s0,6.827-1.707,8.533l-78.507,78.507C247.32,225.987,245.613,226.84,243.053,226.84z M204.653,196.973l35.84,11.947l61.44-61.44
		l-44.373-4.267L204.653,196.973z"/>
	<path d="M309.613,330.093c-0.853,0-1.707,0-1.707,0c-2.56-0.853-5.12-2.56-5.973-5.973l-17.92-54.613
		c-0.853-3.413,0-6.827,1.707-8.533l78.507-78.507c2.56-2.56,5.973-3.413,8.533-1.707c3.413,0.853,5.12,4.267,5.973,7.68
		l5.973,66.56c0,2.56-0.853,5.12-2.56,6.827l-66.56,66.56C313.88,329.24,311.32,330.093,309.613,330.093z M301.08,269.507
		l11.947,35.84l53.76-53.76l-4.267-44.373L301.08,269.507z"/>
	<path d="M146.627,324.12c-0.853,0-1.707,0-2.56-0.853l-72.533-23.893c-2.56-0.853-5.12-3.413-5.973-5.973s0-5.973,2.56-7.68
		l29.867-29.867c1.707-1.707,5.12-2.56,7.68-2.56l78.507,17.92c3.413,0.853,5.12,2.56,5.973,5.973c0.853,2.56,0,5.973-2.56,8.533
		L152.6,321.56C150.893,323.267,148.333,324.12,146.627,324.12z M89.453,287.427l54.613,17.92l21.333-21.333l-58.88-13.653
		L89.453,287.427z"/>
	<path d="M219.16,444.44c-0.853,0-1.707,0-1.707,0c-2.56-0.853-5.12-2.56-5.973-5.973l-24.747-72.533
		c-0.853-3.413,0-6.827,1.707-8.533l35.84-35.84c2.56-2.56,5.12-3.413,8.533-2.56c2.56,0.853,5.12,3.413,5.973,5.973l17.92,78.507
		c0.853,2.56,0,5.973-2.56,7.68l-29.867,29.867C223.427,443.587,220.867,444.44,219.16,444.44z M204.653,365.933l17.92,54.613
		l17.067-17.067l-13.653-58.88L204.653,365.933z"/>
	<path d="M38.253,432.493c-2.56,0-4.267-0.853-5.973-2.56l-25.6-25.6C1.56,400.067-1,394.093-1,387.267
		c0-5.973,2.56-11.947,6.827-17.067l6.827-6.827c5.973-5.973,15.36-8.533,23.893-5.973l45.227,15.36
		c2.56,0.853,5.12,3.413,5.973,5.973c0.853,2.56,0,5.973-2.56,7.68L42.52,428.227C42.52,431.64,39.96,432.493,38.253,432.493z
		 M29.72,374.467c-1.707,0-3.413,0.853-4.267,1.707L18.627,383c-2.56,2.56-2.56,6.827,0,9.387l19.627,19.627l26.453-26.453
		L32.28,374.467C31.427,374.467,30.573,374.467,29.72,374.467z"/>
	<path d="M122.733,511c-5.973,0-11.947-2.56-17.067-6.827l-25.6-25.6c-3.413-3.413-3.413-8.533,0-11.947l42.667-42.667
		c1.707-1.707,5.12-2.56,7.68-2.56c2.56,0.853,5.12,2.56,5.973,5.973l15.36,45.227c2.56,8.533,0.853,17.92-5.973,23.893
		l-6.827,6.827C134.68,508.44,128.707,511,122.733,511z M97.987,471.747l19.627,19.627c2.56,2.56,6.827,2.56,9.387,0l6.827-6.827
		c1.707-1.707,2.56-4.267,1.707-6.827l-11.093-32.427L97.987,471.747z"/>
	<path d="M194.413,371.907L194.413,371.907c-2.56,0-4.267-0.853-5.973-2.56l-48.64-48.64c-3.413-3.413-3.413-8.533,0-11.947
		l97.28-96.427c3.413-3.413,8.533-3.413,11.947,0l48.64,48.64c1.707,1.707,2.56,3.413,2.56,5.973c0,2.56-0.853,4.267-2.56,5.973
		l-97.28,96.427C199.533,371.053,196.973,371.907,194.413,371.907z M158.573,315.587l35.84,35.84l84.48-84.48l-35.84-35.84
		L158.573,315.587z"/>
	<path d="M429.933,136.387c-2.56,0-4.267-0.853-5.973-2.56l-48.64-48.64c-0.853-0.853-1.707-2.56-1.707-5.12
		c0-2.56,0.853-4.267,2.56-5.973l42.667-42.667C440.173,10.093,472.6,3.267,502.467-1c2.56,0,5.12,0.853,6.827,2.56
		C510.147,3.267,511,5.827,511,8.387c-4.267,29.013-11.093,62.293-32.427,83.627l-42.667,41.813
		C434.2,135.533,432.493,136.387,429.933,136.387z M394.093,80.067l35.84,35.84l35.84-35.84c15.36-15.36,22.187-39.253,25.6-62.293
		c-23.04,4.267-46.933,11.093-62.293,25.6L394.093,80.067z"/>
	<path d="M374.467,144.067c0,5.12-3.413,8.533-8.533,8.533s-8.533-3.413-8.533-8.533c0-5.12,3.413-8.533,8.533-8.533
		S374.467,138.947,374.467,144.067"/>
	<path d="M348.867,169.667c0,5.12-3.413,8.533-8.533,8.533c-5.12,0-8.533-3.413-8.533-8.533c0-5.12,3.413-8.533,8.533-8.533
		C345.453,161.133,348.867,164.547,348.867,169.667"/>
	<path d="M323.267,195.267c0,5.12-3.413,8.533-8.533,8.533c-5.12,0-8.533-3.413-8.533-8.533c0-5.12,3.413-8.533,8.533-8.533
		C319.853,186.733,323.267,190.147,323.267,195.267"/>
	<path d="M152.6,365.933c0,5.12-3.413,8.533-8.533,8.533c-5.12,0-8.533-3.413-8.533-8.533s3.413-8.533,8.533-8.533
		C149.187,357.4,152.6,360.813,152.6,365.933"/>
	<path d="M127,391.533c0,5.12-3.413,8.533-8.533,8.533s-8.533-3.413-8.533-8.533s3.413-8.533,8.533-8.533S127,386.413,127,391.533"
		/>
	<path d="M101.4,417.133c0,5.12-3.413,8.533-8.533,8.533s-8.533-3.413-8.533-8.533s3.413-8.533,8.533-8.533
		S101.4,412.013,101.4,417.133"/>
</g>
<g>
</g>
<g>
</g>
<g>
</g>
<g>
</g>
<g>
</g>
<g>
</g>
<g>
</g>
<g>
</g>
<g>
</g>
<g>
</g>
<g>
</g>
<g>
</g>
<g>
</g>
<g>
</g>
<g>
</g>
</svg>
