<svg id="svg" version="1.1" xmlns="http://www.w3.org/2000/svg" xmlns:xlink="http://www.w3.org/1999/xlink" width="400" height="400" viewBox="0, 0, 400,400"><g id="svgg"><path id="path0" d="M198.257 18.563 C 197.717 19.422,196.945 20.581,196.541 21.138 C 196.138 21.696,195.523 22.708,195.174 23.388 C 194.825 24.069,194.249 25.012,193.895 25.486 C 193.540 25.960,193.250 26.422,193.250 26.513 C 193.250 26.604,192.707 27.623,192.043 28.777 C 189.275 33.586,186.293 40.859,185.288 45.250 C 183.951 51.094,183.906 51.986,184.079 69.023 C 184.165 77.491,184.305 84.602,184.390 84.825 C 184.531 85.191,185.973 85.229,199.773 85.231 L 215.000 85.233 215.013 84.554 C 215.250 71.758,214.970 50.739,214.526 48.104 C 213.102 39.651,209.302 31.149,202.469 21.125 C 199.107 16.193,199.570 16.474,198.257 18.563 M184.104 148.875 C 184.171 178.163,184.232 202.659,184.238 203.313 L 184.250 204.500 199.750 204.500 L 215.250 204.500 215.246 197.063 C 215.244 192.972,215.300 168.503,215.370 142.688 C 215.490 98.173,215.474 95.749,215.061 95.727 C 214.821 95.715,207.730 95.687,199.304 95.665 L 183.982 95.625 184.104 148.875 M201.446 119.888 C 204.600 121.203,205.937 124.868,204.245 127.562 C 201.473 131.977,195.297 130.672,194.484 125.500 C 193.900 121.786,198.025 118.461,201.446 119.888 M202.000 142.133 C 204.750 143.560,205.807 147.074,204.239 149.572 C 201.455 154.005,195.302 152.698,194.484 147.500 C 193.863 143.553,198.439 140.285,202.000 142.133 M225.974 154.532 C 225.960 154.721,225.932 166.541,225.912 180.800 L 225.875 206.726 235.894 211.738 C 241.404 214.495,245.989 216.750,246.081 216.750 C 246.174 216.750,246.250 206.418,246.250 193.789 L 246.250 170.829 242.464 167.727 C 240.381 166.021,236.019 162.431,232.769 159.750 C 229.520 157.069,226.667 154.721,226.431 154.532 C 226.066 154.241,225.996 154.241,225.974 154.532 M172.347 155.195 C 171.919 155.569,170.569 156.660,169.347 157.620 C 168.125 158.580,166.281 160.106,165.250 161.011 C 164.219 161.916,162.869 163.041,162.250 163.511 C 161.631 163.981,160.213 165.156,159.098 166.120 C 157.983 167.085,156.108 168.629,154.932 169.550 L 152.794 171.225 152.895 182.175 C 153.164 211.378,153.231 216.565,153.345 216.678 C 153.446 216.779,159.692 213.756,161.397 212.781 C 161.660 212.631,162.775 212.077,163.875 211.550 C 164.975 211.022,166.100 210.460,166.375 210.299 C 166.650 210.139,167.944 209.485,169.250 208.846 C 170.556 208.207,172.043 207.473,172.553 207.216 L 173.482 206.747 173.493 180.624 C 173.500 166.256,173.419 154.503,173.315 154.507 C 173.210 154.511,172.775 154.821,172.347 155.195 M201.997 164.128 C 204.537 165.460,205.754 168.802,204.552 171.141 C 202.303 175.515,196.731 175.300,194.779 170.763 C 192.992 166.608,197.980 162.022,201.997 164.128 M184.439 215.582 C 184.350 215.840,184.376 286.990,184.465 287.625 C 184.502 287.887,214.603 287.980,214.864 287.719 C 214.966 287.617,215.099 224.848,215.015 216.714 L 215.000 215.304 199.769 215.296 C 188.332 215.290,184.514 215.361,184.439 215.582 M173.308 232.250 C 173.308 232.731,173.359 232.928,173.422 232.688 C 173.485 232.447,173.485 232.053,173.422 231.813 C 173.359 231.572,173.308 231.769,173.308 232.250 M225.977 272.177 C 225.903 273.596,225.953 289.780,226.031 289.827 C 226.083 289.858,229.331 291.490,233.250 293.454 C 237.169 295.418,244.107 298.913,248.668 301.220 L 256.962 305.415 256.942 298.188 C 256.923 291.130,256.910 290.953,256.399 290.645 C 256.111 290.471,254.412 289.394,252.625 288.251 C 250.838 287.109,249.008 285.967,248.560 285.715 C 247.714 285.238,244.270 283.089,237.933 279.084 C 235.903 277.800,234.188 276.750,234.123 276.750 C 234.058 276.750,232.738 275.931,231.190 274.929 C 226.613 271.968,226.004 271.647,225.977 272.177 M172.375 272.415 C 171.963 272.632,171.063 273.171,170.375 273.612 C 167.092 275.721,165.732 276.576,165.054 276.959 C 164.649 277.188,163.800 277.712,163.167 278.125 C 162.535 278.538,161.167 279.381,160.127 280.000 C 159.087 280.619,157.656 281.547,156.948 282.063 C 156.239 282.578,155.571 283.000,155.463 283.000 C 155.354 283.000,154.426 283.534,153.400 284.188 C 152.373 284.841,150.795 285.825,149.893 286.375 C 148.018 287.519,144.817 289.538,143.438 290.449 L 142.500 291.068 142.500 298.159 C 142.500 302.059,142.552 305.250,142.616 305.250 C 142.782 305.250,161.404 295.891,163.375 294.817 C 163.650 294.667,164.775 294.100,165.875 293.556 C 166.975 293.011,168.758 292.109,169.837 291.549 C 170.916 290.990,172.125 290.418,172.524 290.279 L 173.250 290.026 173.250 281.013 C 173.250 276.056,173.222 272.005,173.188 272.010 C 173.153 272.016,172.787 272.198,172.375 272.415 M184.296 339.696 L 184.375 381.119 199.726 381.122 L 215.078 381.125 215.174 339.704 L 215.270 298.283 199.744 298.278 L 184.218 298.274 184.296 339.696 M201.878 311.088 C 204.741 312.421,205.907 315.783,204.400 318.355 C 202.488 321.617,198.775 322.150,196.094 319.545 C 191.912 315.484,196.600 308.631,201.878 311.088 M201.446 332.888 C 205.225 334.467,206.168 338.409,203.472 341.358 C 200.430 344.687,195.521 343.246,194.521 338.730 C 193.708 335.062,197.994 331.447,201.446 332.888 M201.625 354.966 C 205.382 356.677,206.138 360.836,203.208 363.673 C 200.814 365.990,197.663 365.730,195.586 363.043 C 192.327 358.828,196.844 352.789,201.625 354.966 M169.606 360.716 C 167.809 361.629,163.871 363.578,160.856 365.048 C 153.231 368.766,153.250 368.742,153.250 374.549 C 153.250 381.421,152.477 381.136,170.813 381.016 L 173.250 381.000 173.250 370.000 C 173.250 363.950,173.166 359.013,173.063 359.029 C 172.959 359.045,171.404 359.804,169.606 360.716 M225.979 359.104 C 225.819 359.265,225.894 380.727,226.056 380.889 C 226.416 381.249,243.193 381.042,243.911 380.669 C 244.707 380.255,245.543 379.406,245.969 378.579 C 246.332 377.874,246.344 370.780,245.983 369.829 C 245.415 368.329,245.863 368.585,231.228 361.403 C 226.246 358.958,226.162 358.922,225.979 359.104 M177.940 391.677 C 178.251 391.737,178.701 391.734,178.940 391.672 C 179.179 391.609,178.925 391.560,178.375 391.563 C 177.825 391.566,177.629 391.617,177.940 391.677 " stroke="none" fill="#f9c80b" fill-rule="evenodd"></path><path id="path1" d="M198.887 2.231 C 198.808 2.358,198.424 2.532,198.033 2.618 C 197.151 2.812,194.767 5.038,194.743 5.690 C 194.740 5.792,194.093 6.678,193.306 7.659 C 192.519 8.640,191.594 9.914,191.250 10.491 C 190.906 11.067,190.225 12.065,189.737 12.707 C 189.248 13.349,188.479 14.526,188.026 15.321 C 187.574 16.116,186.956 17.072,186.652 17.446 C 186.349 17.819,185.613 18.969,185.018 20.000 C 184.422 21.031,183.629 22.331,183.256 22.889 C 182.883 23.447,182.375 24.435,182.127 25.085 C 181.879 25.735,181.579 26.326,181.460 26.400 C 181.146 26.594,179.168 30.940,177.262 35.625 C 177.150 35.900,176.861 36.800,176.619 37.625 C 176.378 38.450,176.096 39.350,175.993 39.625 C 175.250 41.620,174.250 46.995,173.884 50.969 C 173.838 51.467,173.789 71.678,173.775 95.882 L 173.750 139.889 170.450 142.632 C 168.635 144.141,165.457 146.770,163.388 148.475 C 161.318 150.180,158.894 152.220,158.000 153.007 C 157.106 153.794,155.363 155.230,154.125 156.198 C 152.887 157.166,151.673 158.142,151.426 158.366 C 149.559 160.059,146.873 162.337,145.576 163.327 C 144.358 164.256,143.869 164.841,143.283 166.067 L 142.539 167.625 142.582 197.664 L 142.625 227.704 143.385 228.643 C 145.788 231.612,147.076 231.251,162.378 223.321 C 162.651 223.180,164.000 222.515,165.375 221.844 C 166.750 221.174,167.931 220.569,168.000 220.500 C 168.184 220.316,170.897 219.000,171.092 219.000 C 171.185 219.000,171.718 218.711,172.279 218.357 C 172.839 218.003,173.364 217.781,173.446 217.863 C 173.528 217.945,173.578 225.800,173.556 235.318 C 173.535 244.837,173.513 254.284,173.509 256.313 C 173.502 258.930,173.416 260.000,173.211 260.000 C 173.052 260.000,172.574 260.261,172.149 260.580 C 171.499 261.066,170.168 261.907,166.625 264.069 C 166.350 264.236,165.781 264.617,165.360 264.913 C 164.687 265.388,161.365 267.443,159.561 268.500 C 158.569 269.081,154.159 271.952,153.842 272.223 C 153.687 272.355,152.983 272.766,152.278 273.134 C 151.573 273.503,150.939 273.896,150.871 274.007 C 150.802 274.118,149.987 274.633,149.060 275.151 C 148.133 275.669,146.869 276.437,146.250 276.859 C 145.038 277.684,144.516 278.024,143.426 278.695 C 143.042 278.931,141.804 279.720,140.676 280.448 C 139.548 281.176,138.287 281.936,137.875 282.139 C 135.953 283.081,134.170 284.641,133.459 286.000 L 132.741 287.375 132.718 301.677 C 132.696 315.699,132.706 315.994,133.210 316.811 C 134.488 318.878,137.728 319.326,140.625 317.836 C 141.450 317.411,142.519 316.874,143.000 316.641 C 143.481 316.408,144.083 316.105,144.338 315.966 C 144.592 315.828,146.954 314.644,149.588 313.337 C 152.221 312.029,154.544 310.860,154.750 310.739 C 154.956 310.619,156.137 310.010,157.375 309.387 C 158.613 308.764,159.906 308.094,160.250 307.899 C 161.444 307.219,173.126 301.494,173.313 301.497 C 173.416 301.499,173.500 311.732,173.500 324.238 L 173.500 346.976 171.313 348.008 C 170.109 348.575,168.956 349.145,168.750 349.273 C 168.544 349.401,167.896 349.726,167.310 349.995 C 158.206 354.176,147.674 359.835,146.176 361.350 C 140.666 366.926,140.764 381.339,146.350 387.048 C 147.849 388.579,149.753 390.000,150.308 390.000 C 150.496 390.000,150.757 390.099,150.888 390.219 C 152.056 391.298,151.949 391.294,186.827 391.398 C 205.003 391.452,224.994 391.547,231.250 391.609 C 242.131 391.716,245.140 391.590,246.309 390.978 C 246.548 390.852,246.911 390.750,247.115 390.750 C 248.049 390.750,251.122 388.828,252.722 387.243 C 255.964 384.034,256.536 382.089,256.510 374.368 C 256.474 363.594,255.183 361.745,243.750 356.088 C 240.244 354.353,236.363 352.424,235.125 351.801 C 233.887 351.178,232.706 350.584,232.500 350.481 C 232.294 350.378,230.691 349.591,228.938 348.733 L 225.750 347.173 225.750 324.211 C 225.750 311.583,225.829 301.250,225.925 301.250 C 226.021 301.250,228.186 302.277,230.737 303.532 C 233.288 304.787,238.525 307.362,242.375 309.255 C 246.225 311.149,251.921 313.952,255.034 315.485 C 258.146 317.018,261.085 318.336,261.564 318.414 C 263.851 318.785,266.485 317.375,266.510 315.767 C 266.628 307.925,266.422 286.326,266.224 285.804 C 265.839 284.788,265.161 284.170,262.965 282.835 C 261.871 282.169,259.456 280.641,257.600 279.438 C 255.743 278.234,254.156 277.250,254.073 277.250 C 253.990 277.250,252.337 276.230,250.399 274.984 C 243.728 270.695,239.589 268.088,239.230 267.950 C 239.032 267.874,237.325 266.814,235.436 265.593 C 233.547 264.373,230.595 262.480,228.876 261.385 L 225.750 259.396 225.750 238.573 C 225.750 227.120,225.778 217.750,225.813 217.750 C 225.847 217.750,228.181 218.912,231.000 220.331 C 233.819 221.751,237.081 223.390,238.250 223.975 C 239.419 224.559,240.583 225.149,240.836 225.286 C 252.446 231.539,254.242 231.755,256.636 227.188 L 257.258 226.001 257.192 196.563 L 257.125 167.125 256.437 165.954 C 256.058 165.310,255.383 164.527,254.937 164.214 C 254.490 163.902,251.209 161.177,247.644 158.159 C 244.080 155.142,240.255 151.947,239.144 151.060 C 238.034 150.173,234.569 147.294,231.446 144.661 L 225.766 139.875 225.740 96.125 C 225.726 72.063,225.661 51.644,225.595 50.750 C 224.709 38.680,218.958 25.433,207.905 10.000 C 206.674 8.281,205.185 6.192,204.595 5.357 C 203.177 3.349,199.456 1.311,198.887 2.231 M201.529 19.440 C 208.266 28.943,212.636 38.202,214.537 47.000 C 215.091 49.566,215.106 50.028,215.191 67.539 L 215.278 85.454 200.073 85.465 C 191.709 85.472,184.722 85.387,184.544 85.277 C 184.077 84.988,183.939 80.401,183.916 64.375 C 183.896 49.578,183.836 50.487,185.226 44.500 C 185.579 42.981,187.281 38.187,188.030 36.601 C 188.426 35.762,188.750 34.974,188.750 34.849 C 188.750 34.514,191.885 28.363,192.486 27.520 C 192.769 27.123,193.000 26.691,193.000 26.561 C 193.000 26.431,193.326 25.875,193.724 25.326 C 194.122 24.777,194.642 23.944,194.879 23.476 C 195.669 21.921,199.121 16.764,199.375 16.759 C 199.512 16.757,200.482 17.964,201.529 19.440 M215.398 95.564 C 215.552 95.718,215.554 204.529,215.401 204.683 C 215.225 204.858,184.390 204.740,184.217 204.563 C 184.074 204.417,183.824 96.013,183.965 95.500 C 184.016 95.318,215.215 95.382,215.398 95.564 M198.139 120.123 C 193.871 121.643,193.332 126.819,197.186 129.263 C 200.740 131.517,205.853 127.846,204.769 123.820 C 203.993 120.940,200.818 119.169,198.139 120.123 M198.498 141.996 C 193.870 143.311,193.214 148.950,197.404 151.405 C 201.649 153.893,206.910 148.438,204.109 144.453 C 202.652 142.380,200.486 141.432,198.498 141.996 M234.492 160.878 C 238.140 163.905,242.137 167.183,243.375 168.164 C 244.613 169.144,245.822 170.164,246.064 170.432 C 246.477 170.888,246.499 172.293,246.439 194.072 L 246.375 217.227 236.063 212.096 L 225.750 206.965 225.750 180.345 L 225.750 153.726 226.804 154.551 C 227.384 155.004,230.844 157.851,234.492 160.878 M173.664 180.518 C 173.611 198.676,173.506 206.844,173.321 207.029 C 172.863 207.487,153.259 217.216,153.150 217.040 C 153.036 216.856,152.789 197.484,152.694 181.330 C 152.634 171.061,152.635 171.033,153.172 170.580 C 153.468 170.330,154.575 169.450,155.631 168.625 C 156.687 167.800,158.533 166.281,159.734 165.250 C 162.395 162.964,164.580 161.161,168.716 157.835 C 170.454 156.439,172.199 155.006,172.594 154.653 C 172.990 154.299,173.409 154.069,173.527 154.142 C 173.644 154.214,173.706 166.083,173.664 180.518 M198.081 164.156 C 194.910 165.245,193.614 169.219,195.584 171.806 C 197.987 174.960,202.028 174.768,204.109 171.402 C 206.517 167.509,202.471 162.646,198.081 164.156 M215.250 251.594 L 215.250 288.125 199.895 288.124 C 191.450 288.124,184.473 288.056,184.391 287.974 C 184.211 287.794,184.185 215.558,184.364 215.267 C 184.434 215.155,191.411 215.063,199.870 215.063 L 215.250 215.063 215.250 251.594 M228.543 273.000 C 228.638 273.000,230.384 274.059,232.421 275.354 C 238.904 279.473,239.828 280.053,242.125 281.441 C 243.363 282.189,245.556 283.560,247.000 284.488 C 248.444 285.416,250.412 286.639,251.375 287.207 C 252.338 287.774,254.025 288.844,255.125 289.583 L 257.125 290.926 257.142 298.338 C 257.151 302.415,257.133 305.750,257.103 305.750 C 257.042 305.750,242.138 298.220,232.063 293.099 L 225.750 289.890 225.750 280.563 L 225.750 271.237 227.059 272.118 C 227.779 272.603,228.447 273.000,228.543 273.000 M173.487 280.813 L 173.468 290.125 167.046 293.340 C 163.515 295.108,160.175 296.776,159.625 297.047 C 159.075 297.318,158.456 297.638,158.250 297.759 C 158.044 297.880,156.806 298.499,155.500 299.134 C 154.194 299.770,152.956 300.382,152.750 300.495 C 149.862 302.078,142.488 305.682,142.407 305.550 C 142.348 305.454,142.295 302.143,142.290 298.193 L 142.280 291.011 143.197 290.256 C 143.701 289.840,144.214 289.500,144.336 289.500 C 144.458 289.500,145.079 289.124,145.717 288.664 C 146.354 288.204,147.381 287.561,148.000 287.234 C 148.619 286.908,149.334 286.469,149.589 286.258 C 150.083 285.850,152.093 284.617,154.750 283.094 C 155.644 282.581,156.769 281.861,157.250 281.493 C 157.731 281.125,158.415 280.667,158.768 280.475 C 159.122 280.282,159.951 279.788,160.610 279.375 C 161.269 278.962,162.611 278.131,163.592 277.528 C 164.573 276.924,165.994 276.024,166.750 275.528 C 167.506 275.031,168.238 274.580,168.375 274.525 C 168.512 274.471,169.131 274.080,169.750 273.657 C 170.726 272.991,173.252 271.518,173.441 271.505 C 173.477 271.502,173.498 275.691,173.487 280.813 M215.270 339.601 C 215.249 362.413,215.188 381.148,215.135 381.233 C 215.014 381.430,184.593 381.426,184.395 381.229 C 184.228 381.062,184.026 298.307,184.192 298.141 C 184.252 298.081,191.278 298.053,199.805 298.079 L 215.309 298.125 215.270 339.601 M197.334 311.468 C 193.335 314.365,193.741 318.964,198.145 320.646 C 201.671 321.993,205.723 318.364,204.746 314.735 C 203.835 311.352,199.893 309.614,197.334 311.468 M198.263 332.919 C 197.111 333.162,194.807 335.823,194.610 337.139 C 193.846 342.232,200.186 344.950,203.580 340.985 C 206.831 337.186,203.316 331.854,198.263 332.919 M198.125 355.049 C 192.601 356.964,194.059 365.000,199.931 365.000 C 202.062 365.000,204.572 362.657,204.840 360.416 C 205.262 356.884,201.502 353.879,198.125 355.049 M173.433 370.075 L 173.375 381.375 165.000 381.389 C 155.025 381.406,154.692 381.335,153.473 378.947 C 152.978 377.977,152.775 372.188,153.167 370.227 C 153.357 369.279,155.467 367.000,156.156 367.000 C 156.392 367.000,156.763 366.847,156.980 366.660 C 157.197 366.474,158.387 365.855,159.625 365.285 C 160.863 364.715,164.406 362.982,167.500 361.432 C 170.594 359.883,173.207 358.651,173.308 358.695 C 173.409 358.738,173.465 363.859,173.433 370.075 M232.750 361.865 C 233.369 362.182,236.421 363.699,239.532 365.237 C 246.715 368.788,246.500 368.510,246.500 374.231 C 246.500 378.608,246.216 379.519,244.500 380.655 L 243.509 381.311 234.942 381.370 C 230.230 381.403,226.234 381.377,226.063 381.313 C 225.819 381.222,225.750 378.701,225.750 369.863 L 225.750 358.529 228.688 359.909 C 230.303 360.668,232.131 361.548,232.750 361.865 " stroke="none" fill="#040404" fill-rule="evenodd"></path><path id="path2" d="" stroke="none" fill="#5e5320" fill-rule="evenodd"></path><path id="path3" d="M215.063 54.375 C 215.066 54.925,215.117 55.121,215.177 54.810 C 215.237 54.499,215.234 54.049,215.172 53.810 C 215.109 53.571,215.060 53.825,215.063 54.375 M215.063 58.125 C 215.066 58.675,215.117 58.871,215.177 58.560 C 215.237 58.249,215.234 57.799,215.172 57.560 C 215.109 57.321,215.060 57.575,215.063 58.125 M215.063 62.125 C 215.066 62.675,215.117 62.871,215.177 62.560 C 215.237 62.249,215.234 61.799,215.172 61.560 C 215.109 61.321,215.060 61.575,215.063 62.125 M215.058 64.000 C 215.058 64.481,215.109 64.678,215.172 64.438 C 215.235 64.197,215.235 63.803,215.172 63.563 C 215.109 63.322,215.058 63.519,215.058 64.000 M215.063 65.875 C 215.066 66.425,215.117 66.621,215.177 66.310 C 215.237 65.999,215.234 65.549,215.172 65.310 C 215.109 65.071,215.060 65.325,215.063 65.875 M215.058 67.750 C 215.058 68.231,215.109 68.428,215.172 68.188 C 215.235 67.947,215.235 67.553,215.172 67.313 C 215.109 67.072,215.058 67.269,215.058 67.750 M215.058 77.000 C 215.058 77.481,215.109 77.678,215.172 77.438 C 215.235 77.197,215.235 76.803,215.172 76.563 C 215.109 76.322,215.058 76.519,215.058 77.000 M215.063 78.875 C 215.066 79.425,215.117 79.621,215.177 79.310 C 215.237 78.999,215.234 78.549,215.172 78.310 C 215.109 78.071,215.060 78.325,215.063 78.875 M215.058 80.750 C 215.058 81.231,215.109 81.428,215.172 81.188 C 215.235 80.947,215.235 80.553,215.172 80.313 C 215.109 80.072,215.058 80.269,215.058 80.750 M215.068 82.750 C 215.068 83.369,215.117 83.622,215.176 83.313 C 215.236 83.003,215.236 82.497,215.176 82.188 C 215.117 81.878,215.068 82.131,215.068 82.750 M198.063 95.672 C 198.303 95.735,198.697 95.735,198.938 95.672 C 199.178 95.609,198.981 95.558,198.500 95.558 C 198.019 95.558,197.822 95.609,198.063 95.672 M203.313 95.672 C 203.553 95.735,203.947 95.735,204.188 95.672 C 204.428 95.609,204.231 95.558,203.750 95.558 C 203.269 95.558,203.072 95.609,203.313 95.672 M209.063 95.672 C 209.303 95.735,209.697 95.735,209.938 95.672 C 210.178 95.609,209.981 95.558,209.500 95.558 C 209.019 95.558,208.822 95.609,209.063 95.672 M195.987 121.188 L 195.125 122.125 196.063 121.263 C 196.935 120.462,197.115 120.250,196.924 120.250 C 196.882 120.250,196.460 120.672,195.987 121.188 M195.859 143.313 L 195.125 144.125 195.938 143.391 C 196.384 142.987,196.750 142.621,196.750 142.578 C 196.750 142.385,196.544 142.555,195.859 143.313 M162.991 162.768 L 162.125 163.536 163.063 162.863 C 163.891 162.269,164.161 162.000,163.928 162.000 C 163.888 162.000,163.467 162.346,162.991 162.768 M187.313 204.672 C 187.553 204.735,187.947 204.735,188.188 204.672 C 188.428 204.609,188.231 204.558,187.750 204.558 C 187.269 204.558,187.072 204.609,187.313 204.672 M153.082 212.875 C 153.083 213.838,153.128 214.201,153.182 213.682 C 153.237 213.163,153.236 212.376,153.180 211.932 C 153.125 211.488,153.081 211.912,153.082 212.875 M240.500 214.123 C 240.500 214.294,242.031 215.053,242.145 214.938 C 242.199 214.884,241.851 214.653,241.372 214.424 C 240.892 214.195,240.500 214.060,240.500 214.123 M153.020 215.673 C 153.009 216.249,153.089 216.775,153.198 216.843 C 153.307 216.910,153.355 216.551,153.305 216.045 C 153.168 214.661,153.042 214.497,153.020 215.673 M215.063 217.125 C 215.066 217.675,215.117 217.871,215.177 217.560 C 215.237 217.249,215.234 216.799,215.172 216.560 C 215.109 216.321,215.060 216.575,215.063 217.125 M215.058 219.000 C 215.058 219.481,215.109 219.678,215.172 219.438 C 215.235 219.197,215.235 218.803,215.172 218.563 C 215.109 218.322,215.058 218.519,215.058 219.000 M215.068 221.000 C 215.068 221.619,215.117 221.872,215.176 221.563 C 215.236 221.253,215.236 220.747,215.176 220.438 C 215.117 220.128,215.068 220.381,215.068 221.000 M215.058 224.250 C 215.058 224.731,215.109 224.928,215.172 224.688 C 215.235 224.447,215.235 224.053,215.172 223.813 C 215.109 223.572,215.058 223.769,215.058 224.250 M215.063 230.125 C 215.066 230.675,215.117 230.871,215.177 230.560 C 215.237 230.249,215.234 229.799,215.172 229.560 C 215.109 229.321,215.060 229.575,215.063 230.125 M215.058 232.000 C 215.058 232.481,215.109 232.678,215.172 232.438 C 215.235 232.197,215.235 231.803,215.172 231.563 C 215.109 231.322,215.058 231.519,215.058 232.000 M215.063 233.875 C 215.066 234.425,215.117 234.621,215.177 234.310 C 215.237 233.999,215.234 233.549,215.172 233.310 C 215.109 233.071,215.060 233.325,215.063 233.875 M215.058 235.750 C 215.058 236.231,215.109 236.428,215.172 236.188 C 215.235 235.947,215.235 235.553,215.172 235.313 C 215.109 235.072,215.058 235.269,215.058 235.750 M215.068 237.750 C 215.068 238.369,215.117 238.622,215.176 238.313 C 215.236 238.003,215.236 237.497,215.176 237.188 C 215.117 236.878,215.068 237.131,215.068 237.750 M215.068 241.500 C 215.068 242.119,215.117 242.372,215.176 242.063 C 215.236 241.753,215.236 241.247,215.176 240.938 C 215.117 240.628,215.068 240.881,215.068 241.500 M215.058 245.000 C 215.058 245.481,215.109 245.678,215.172 245.438 C 215.235 245.197,215.235 244.803,215.172 244.563 C 215.109 244.322,215.058 244.519,215.058 245.000 M215.063 246.875 C 215.066 247.425,215.117 247.621,215.177 247.310 C 215.237 246.999,215.234 246.549,215.172 246.310 C 215.109 246.071,215.060 246.325,215.063 246.875 M215.058 248.750 C 215.058 249.231,215.109 249.428,215.172 249.188 C 215.235 248.947,215.235 248.553,215.172 248.313 C 215.109 248.072,215.058 248.269,215.058 248.750 M215.068 250.750 C 215.068 251.369,215.117 251.622,215.176 251.313 C 215.236 251.003,215.236 250.497,215.176 250.188 C 215.117 249.878,215.068 250.131,215.068 250.750 M215.068 258.250 C 215.068 258.869,215.117 259.122,215.176 258.813 C 215.236 258.503,215.236 257.997,215.176 257.688 C 215.117 257.378,215.068 257.631,215.068 258.250 M225.779 272.063 C 225.801 272.491,225.835 272.520,225.923 272.184 C 225.986 271.942,226.159 271.819,226.308 271.911 C 226.468 272.010,226.505 271.960,226.399 271.789 C 226.102 271.308,225.748 271.464,225.779 272.063 M163.301 277.857 C 162.140 278.678,161.976 278.913,162.957 278.351 C 163.414 278.089,163.906 277.734,164.050 277.563 C 164.419 277.121,164.246 277.189,163.301 277.857 M214.063 287.922 C 214.303 287.985,214.697 287.985,214.938 287.922 C 215.178 287.859,214.981 287.808,214.500 287.808 C 214.019 287.808,213.822 287.859,214.063 287.922 M225.808 288.500 C 225.808 288.981,225.859 289.178,225.922 288.938 C 225.985 288.697,225.985 288.303,225.922 288.063 C 225.859 287.822,225.808 288.019,225.808 288.500 M254.375 289.380 C 254.650 289.603,255.100 289.897,255.375 290.032 L 255.875 290.278 255.375 289.870 C 255.100 289.647,254.650 289.353,254.375 289.218 L 253.875 288.972 254.375 289.380 M170.375 291.250 C 169.963 291.523,169.738 291.745,169.875 291.743 C 170.126 291.739,171.485 290.765,171.250 290.757 C 171.181 290.755,170.787 290.977,170.375 291.250 M232.500 293.123 C 232.500 293.293,234.531 294.303,234.644 294.190 C 234.696 294.137,234.235 293.850,233.620 293.550 C 233.004 293.251,232.500 293.059,232.500 293.123 M238.271 296.094 C 238.527 296.326,240.500 297.247,240.500 297.135 C 240.500 296.993,238.613 296.000,238.343 296.000 C 238.246 296.000,238.214 296.042,238.271 296.094 M157.625 297.750 C 157.213 298.023,156.988 298.245,157.125 298.243 C 157.376 298.239,158.735 297.265,158.500 297.257 C 158.431 297.255,158.037 297.477,157.625 297.750 M149.125 302.000 C 148.713 302.273,148.488 302.495,148.625 302.493 C 148.876 302.489,150.235 301.515,150.000 301.507 C 149.931 301.505,149.537 301.727,149.125 302.000 M254.521 304.344 C 254.777 304.576,256.750 305.497,256.750 305.385 C 256.750 305.243,254.863 304.250,254.593 304.250 C 254.496 304.250,254.464 304.292,254.521 304.344 M195.859 356.313 L 195.125 357.125 195.938 356.391 C 196.384 355.987,196.750 355.621,196.750 355.578 C 196.750 355.385,196.544 355.555,195.859 356.313 M225.750 359.015 C 225.750 359.160,225.860 359.211,225.995 359.128 C 226.129 359.045,226.495 359.101,226.807 359.252 C 227.351 359.516,227.355 359.511,226.890 359.139 C 226.331 358.691,225.750 358.628,225.750 359.015 M230.750 361.123 C 230.750 361.293,232.781 362.303,232.894 362.190 C 232.946 362.137,232.485 361.850,231.870 361.550 C 231.254 361.251,230.750 361.059,230.750 361.123 M242.250 366.875 C 242.869 367.206,243.488 367.477,243.625 367.477 C 243.762 367.477,243.369 367.206,242.750 366.875 C 242.131 366.544,241.512 366.273,241.375 366.273 C 241.238 366.273,241.631 366.544,242.250 366.875 M154.487 368.438 L 153.625 369.375 154.563 368.513 C 155.435 367.712,155.615 367.500,155.424 367.500 C 155.382 367.500,154.960 367.922,154.487 368.438 M225.779 380.688 C 225.753 381.183,225.862 381.245,226.688 381.210 C 227.588 381.172,227.594 381.166,226.828 381.070 C 226.349 381.010,225.987 380.802,225.920 380.548 C 225.840 380.247,225.800 380.288,225.779 380.688 M158.563 381.179 C 158.941 381.236,159.559 381.236,159.938 381.179 C 160.316 381.122,160.006 381.075,159.250 381.075 C 158.494 381.075,158.184 381.122,158.563 381.179 M161.316 381.179 C 161.696 381.237,162.258 381.235,162.566 381.176 C 162.873 381.117,162.563 381.070,161.875 381.072 C 161.188 381.073,160.936 381.122,161.316 381.179 M163.816 381.179 C 164.196 381.237,164.758 381.235,165.066 381.176 C 165.373 381.117,165.063 381.070,164.375 381.072 C 163.688 381.073,163.436 381.122,163.816 381.179 M166.566 381.179 C 166.946 381.237,167.508 381.235,167.816 381.176 C 168.123 381.117,167.813 381.070,167.125 381.072 C 166.438 381.073,166.186 381.122,166.566 381.179 M169.696 381.185 C 170.422 381.235,171.547 381.235,172.196 381.183 C 172.844 381.132,172.250 381.091,170.875 381.091 C 169.500 381.092,168.969 381.134,169.696 381.185 M196.440 381.177 C 196.751 381.237,197.201 381.234,197.440 381.172 C 197.679 381.109,197.425 381.060,196.875 381.063 C 196.325 381.066,196.129 381.117,196.440 381.177 M229.196 381.185 C 229.922 381.235,231.047 381.235,231.696 381.183 C 232.344 381.132,231.750 381.091,230.375 381.091 C 229.000 381.092,228.469 381.134,229.196 381.185 M234.688 381.185 C 235.547 381.234,236.953 381.234,237.813 381.185 C 238.672 381.136,237.969 381.096,236.250 381.096 C 234.531 381.096,233.828 381.136,234.688 381.185 M240.066 381.179 C 240.446 381.237,241.008 381.235,241.316 381.176 C 241.623 381.117,241.313 381.070,240.625 381.072 C 239.938 381.073,239.686 381.122,240.066 381.179 " stroke="none" fill="#985d06" fill-rule="evenodd"></path><path id="path4" d="M197.563 2.493 C 196.978 2.759,196.500 3.031,196.500 3.099 C 196.500 3.212,198.744 2.302,198.979 2.093 C 199.250 1.852,198.520 2.058,197.563 2.493 M191.952 8.938 C 191.511 9.450,191.181 10.000,191.313 10.000 C 191.364 10.000,191.655 9.662,191.960 9.250 C 192.563 8.435,192.557 8.232,191.952 8.938 M173.808 49.750 C 173.808 50.231,173.859 50.428,173.922 50.188 C 173.985 49.947,173.985 49.553,173.922 49.313 C 173.859 49.072,173.808 49.269,173.808 49.750 M173.572 59.375 C 173.573 60.063,173.622 60.314,173.679 59.934 C 173.737 59.554,173.735 58.992,173.676 58.684 C 173.617 58.377,173.570 58.688,173.572 59.375 M173.572 64.625 C 173.573 65.313,173.622 65.564,173.679 65.184 C 173.737 64.804,173.735 64.242,173.676 63.934 C 173.617 63.627,173.570 63.938,173.572 64.625 M173.572 68.375 C 173.573 69.063,173.622 69.314,173.679 68.934 C 173.737 68.554,173.735 67.992,173.676 67.684 C 173.617 67.377,173.570 67.688,173.572 68.375 M173.568 73.750 C 173.568 74.369,173.617 74.622,173.676 74.313 C 173.736 74.003,173.736 73.497,173.676 73.188 C 173.617 72.878,173.568 73.131,173.568 73.750 M173.558 75.750 C 173.558 76.231,173.609 76.428,173.672 76.188 C 173.735 75.947,173.735 75.553,173.672 75.313 C 173.609 75.072,173.558 75.269,173.558 75.750 M173.568 79.000 C 173.568 79.619,173.617 79.872,173.676 79.563 C 173.736 79.253,173.736 78.747,173.676 78.438 C 173.617 78.128,173.568 78.381,173.568 79.000 M173.558 81.000 C 173.558 81.481,173.609 81.678,173.672 81.438 C 173.735 81.197,173.735 80.803,173.672 80.563 C 173.609 80.322,173.558 80.519,173.558 81.000 M173.563 82.875 C 173.566 83.425,173.617 83.621,173.677 83.310 C 173.737 82.999,173.734 82.549,173.672 82.310 C 173.609 82.071,173.560 82.325,173.563 82.875 M173.558 84.750 C 173.558 85.231,173.609 85.428,173.672 85.188 C 173.735 84.947,173.735 84.553,173.672 84.313 C 173.609 84.072,173.558 84.269,173.558 84.750 M173.568 88.250 C 173.568 88.869,173.617 89.122,173.676 88.813 C 173.736 88.503,173.736 87.997,173.676 87.688 C 173.617 87.378,173.568 87.631,173.568 88.250 M173.572 92.125 C 173.573 92.813,173.622 93.064,173.679 92.684 C 173.737 92.304,173.735 91.742,173.676 91.434 C 173.617 91.127,173.570 91.438,173.572 92.125 M173.572 97.375 C 173.573 98.063,173.622 98.314,173.679 97.934 C 173.737 97.554,173.735 96.992,173.676 96.684 C 173.617 96.377,173.570 96.688,173.572 97.375 M173.568 105.000 C 173.568 105.619,173.617 105.872,173.676 105.563 C 173.736 105.253,173.736 104.747,173.676 104.438 C 173.617 104.128,173.568 104.381,173.568 105.000 M165.237 146.688 L 164.375 147.625 165.313 146.763 C 166.185 145.962,166.365 145.750,166.174 145.750 C 166.132 145.750,165.710 146.172,165.237 146.688 M160.368 150.644 L 159.125 151.788 160.438 150.730 C 161.615 149.781,161.899 149.500,161.681 149.500 C 161.643 149.500,161.052 150.015,160.368 150.644 M157.859 152.813 L 157.125 153.625 157.938 152.891 C 158.384 152.487,158.750 152.121,158.750 152.078 C 158.750 151.885,158.544 152.055,157.859 152.813 M154.250 155.784 L 153.125 156.803 154.184 156.008 C 155.105 155.317,155.696 154.734,155.452 154.757 C 155.410 154.762,154.869 155.223,154.250 155.784 M150.737 158.688 L 149.875 159.625 150.813 158.763 C 151.685 157.962,151.865 157.750,151.674 157.750 C 151.632 157.750,151.210 158.172,150.737 158.688 M148.737 160.438 L 147.875 161.375 148.813 160.513 C 149.685 159.712,149.865 159.500,149.674 159.500 C 149.632 159.500,149.210 159.922,148.737 160.438 M144.921 163.523 C 144.136 164.224,143.367 165.039,143.214 165.336 C 143.061 165.632,143.316 165.446,143.781 164.922 C 144.245 164.398,145.075 163.586,145.625 163.119 C 146.175 162.651,146.563 162.265,146.487 162.259 C 146.412 162.254,145.707 162.823,144.921 163.523 M257.334 170.250 C 257.334 171.281,257.378 171.703,257.432 171.188 C 257.486 170.672,257.486 169.828,257.432 169.313 C 257.378 168.797,257.334 169.219,257.334 170.250 M257.334 174.000 C 257.334 175.031,257.378 175.453,257.432 174.938 C 257.486 174.422,257.486 173.578,257.432 173.063 C 257.378 172.547,257.334 172.969,257.334 174.000 M257.334 178.000 C 257.334 179.031,257.378 179.453,257.432 178.938 C 257.486 178.422,257.486 177.578,257.432 177.063 C 257.378 176.547,257.334 176.969,257.334 178.000 M257.318 182.500 C 257.318 183.119,257.367 183.372,257.426 183.063 C 257.486 182.753,257.486 182.247,257.426 181.938 C 257.367 181.628,257.318 181.881,257.318 182.500 M257.322 186.375 C 257.323 187.063,257.372 187.314,257.429 186.934 C 257.487 186.554,257.485 185.992,257.426 185.684 C 257.367 185.377,257.320 185.688,257.322 186.375 M257.322 190.125 C 257.323 190.813,257.372 191.064,257.429 190.684 C 257.487 190.304,257.485 189.742,257.426 189.434 C 257.367 189.127,257.320 189.438,257.322 190.125 M257.334 194.750 C 257.334 195.781,257.378 196.203,257.432 195.688 C 257.486 195.172,257.486 194.328,257.432 193.813 C 257.378 193.297,257.334 193.719,257.334 194.750 M257.318 199.250 C 257.318 199.869,257.367 200.122,257.426 199.813 C 257.486 199.503,257.486 198.997,257.426 198.688 C 257.367 198.378,257.318 198.631,257.318 199.250 M257.322 203.125 C 257.323 203.813,257.372 204.064,257.429 203.684 C 257.487 203.304,257.485 202.742,257.426 202.434 C 257.367 202.127,257.320 202.438,257.322 203.125 M257.318 207.000 C 257.318 207.619,257.367 207.872,257.426 207.563 C 257.486 207.253,257.486 206.747,257.426 206.438 C 257.367 206.128,257.318 206.381,257.318 207.000 M257.334 211.500 C 257.334 212.531,257.378 212.953,257.432 212.438 C 257.486 211.922,257.486 211.078,257.432 210.563 C 257.378 210.047,257.334 210.469,257.334 211.500 M257.322 216.125 C 257.323 216.813,257.372 217.064,257.429 216.684 C 257.487 216.304,257.485 215.742,257.426 215.434 C 257.367 215.127,257.320 215.438,257.322 216.125 M226.750 218.500 C 227.231 218.763,227.738 218.979,227.875 218.979 C 228.012 218.979,227.731 218.763,227.250 218.500 C 226.769 218.237,226.262 218.021,226.125 218.021 C 225.988 218.021,226.269 218.237,226.750 218.500 M257.322 219.875 C 257.323 220.563,257.372 220.814,257.429 220.434 C 257.487 220.054,257.485 219.492,257.426 219.184 C 257.367 218.877,257.320 219.188,257.322 219.875 M231.021 220.594 C 231.277 220.826,233.250 221.747,233.250 221.635 C 233.250 221.493,231.363 220.500,231.093 220.500 C 230.996 220.500,230.964 220.542,231.021 220.594 M257.334 224.500 C 257.334 225.531,257.378 225.953,257.432 225.438 C 257.486 224.922,257.486 224.078,257.432 223.563 C 257.378 223.047,257.334 223.469,257.334 224.500 M159.438 224.893 C 158.503 225.400,158.560 225.611,159.500 225.125 C 159.912 224.912,160.250 224.684,160.250 224.619 C 160.250 224.458,160.223 224.467,159.438 224.893 M142.318 226.000 C 142.318 226.619,142.367 226.872,142.426 226.563 C 142.486 226.253,142.486 225.747,142.426 225.438 C 142.367 225.128,142.318 225.381,142.318 226.000 M242.500 226.373 C 242.500 226.544,244.031 227.303,244.145 227.188 C 244.199 227.134,243.851 226.903,243.372 226.674 C 242.892 226.445,242.500 226.310,242.500 226.373 M247.271 228.845 C 247.526 229.077,250.000 230.245,250.000 230.133 C 250.000 229.992,247.613 228.750,247.342 228.750 C 247.245 228.750,247.214 228.793,247.271 228.845 M255.353 229.274 C 255.093 229.562,254.541 229.955,254.127 230.146 C 253.510 230.432,253.487 230.468,254.000 230.347 C 254.544 230.219,256.356 228.750,255.971 228.750 C 255.892 228.750,255.614 228.986,255.353 229.274 M251.688 230.676 C 251.997 230.736,252.503 230.736,252.813 230.676 C 253.122 230.617,252.869 230.568,252.250 230.568 C 251.631 230.568,251.378 230.617,251.688 230.676 M173.318 253.500 C 173.318 254.119,173.367 254.372,173.426 254.063 C 173.486 253.753,173.486 253.247,173.426 252.938 C 173.367 252.628,173.318 252.881,173.318 253.500 M173.322 257.375 C 173.323 258.063,173.372 258.314,173.429 257.934 C 173.487 257.554,173.485 256.992,173.426 256.684 C 173.367 256.377,173.320 256.688,173.322 257.375 M226.882 260.087 C 228.075 260.901,228.750 261.299,228.750 261.187 C 228.750 261.028,226.815 259.750,226.575 259.750 C 226.472 259.750,226.611 259.901,226.882 260.087 M170.801 261.107 C 169.640 261.928,169.476 262.163,170.457 261.601 C 170.914 261.339,171.406 260.984,171.550 260.813 C 171.919 260.371,171.746 260.439,170.801 261.107 M234.733 264.952 C 235.068 265.224,235.687 265.637,236.108 265.869 L 236.875 266.292 236.267 265.798 C 235.932 265.526,235.313 265.113,234.892 264.881 L 234.125 264.458 234.733 264.952 M163.188 265.893 C 162.253 266.400,162.310 266.611,163.250 266.125 C 163.662 265.912,164.000 265.684,164.000 265.619 C 164.000 265.458,163.973 265.467,163.188 265.893 M160.875 267.397 L 160.125 268.041 160.938 267.504 C 161.384 267.208,161.750 266.917,161.750 266.858 C 161.750 266.671,161.644 266.736,160.875 267.397 M242.125 269.630 C 242.400 269.853,242.850 270.147,243.125 270.282 L 243.625 270.528 243.125 270.120 C 242.850 269.897,242.400 269.603,242.125 269.468 L 241.625 269.222 242.125 269.630 M154.250 271.514 C 153.906 271.791,153.099 272.293,152.455 272.629 C 151.812 272.965,151.221 273.344,151.143 273.471 C 150.927 273.820,153.518 272.353,154.375 271.641 C 154.787 271.298,155.069 271.016,155.000 271.015 C 154.931 271.013,154.594 271.238,154.250 271.514 M256.983 278.952 C 257.318 279.224,257.937 279.637,258.358 279.869 L 259.125 280.292 258.517 279.798 C 258.182 279.526,257.563 279.113,257.142 278.881 L 256.375 278.458 256.983 278.952 M139.801 280.607 C 138.640 281.428,138.476 281.663,139.457 281.101 C 139.914 280.839,140.406 280.484,140.550 280.313 C 140.919 279.871,140.746 279.939,139.801 280.607 M263.744 283.177 C 264.085 283.423,264.760 283.957,265.244 284.364 L 266.125 285.103 265.449 284.362 C 265.077 283.954,264.402 283.420,263.949 283.175 C 263.155 282.745,263.148 282.745,263.744 283.177 M266.568 287.500 C 266.568 288.119,266.617 288.372,266.676 288.063 C 266.736 287.753,266.736 287.247,266.676 286.938 C 266.617 286.628,266.568 286.881,266.568 287.500 M173.308 303.500 C 173.308 303.981,173.359 304.178,173.422 303.938 C 173.485 303.697,173.485 303.303,173.422 303.063 C 173.359 302.822,173.308 303.019,173.308 303.500 M230.250 303.625 C 230.869 303.956,231.488 304.227,231.625 304.227 C 231.762 304.227,231.369 303.956,230.750 303.625 C 230.131 303.294,229.512 303.023,229.375 303.023 C 229.238 303.023,229.631 303.294,230.250 303.625 M173.334 306.250 C 173.334 307.281,173.378 307.703,173.432 307.188 C 173.486 306.672,173.486 305.828,173.432 305.313 C 173.378 304.797,173.334 305.219,173.334 306.250 M241.000 308.875 C 241.619 309.206,242.238 309.477,242.375 309.477 C 242.512 309.477,242.119 309.206,241.500 308.875 C 240.881 308.544,240.262 308.273,240.125 308.273 C 239.988 308.273,240.381 308.544,241.000 308.875 M173.318 310.750 C 173.318 311.369,173.367 311.622,173.426 311.313 C 173.486 311.003,173.486 310.497,173.426 310.188 C 173.367 309.878,173.318 310.131,173.318 310.750 M246.500 311.625 C 247.119 311.956,247.738 312.227,247.875 312.227 C 248.012 312.227,247.619 311.956,247.000 311.625 C 246.381 311.294,245.762 311.023,245.625 311.023 C 245.488 311.023,245.881 311.294,246.500 311.625 M150.000 313.272 C 149.585 313.612,149.543 313.697,149.875 313.525 C 150.690 313.104,151.143 312.758,150.875 312.759 C 150.738 312.760,150.344 312.991,150.000 313.272 M144.500 316.022 C 144.085 316.362,144.043 316.447,144.375 316.275 C 145.190 315.854,145.643 315.508,145.375 315.509 C 145.238 315.510,144.844 315.741,144.500 316.022 M257.000 316.750 C 257.756 317.150,258.488 317.476,258.625 317.476 C 258.762 317.476,258.256 317.150,257.500 316.750 C 256.744 316.350,256.012 316.024,255.875 316.024 C 255.738 316.024,256.244 316.350,257.000 316.750 M142.688 316.893 C 141.718 317.419,141.828 317.600,142.813 317.100 C 143.755 316.620,143.922 316.496,143.604 316.510 C 143.478 316.516,143.066 316.688,142.688 316.893 M265.643 317.476 L 264.911 318.375 265.755 317.571 C 266.220 317.128,266.549 316.724,266.487 316.672 C 266.425 316.620,266.046 316.982,265.643 317.476 M139.669 318.414 C 139.579 318.504,139.082 318.660,138.565 318.760 C 137.676 318.933,137.666 318.944,138.390 318.971 C 138.810 318.987,139.373 318.835,139.640 318.633 C 139.907 318.431,140.059 318.262,139.979 318.258 C 139.899 318.254,139.760 318.324,139.669 318.414 M173.322 319.875 C 173.323 320.563,173.372 320.814,173.429 320.434 C 173.487 320.054,173.485 319.492,173.426 319.184 C 173.367 318.877,173.320 319.188,173.322 319.875 M228.000 348.123 C 228.000 348.293,230.031 349.303,230.144 349.190 C 230.196 349.137,229.735 348.850,229.120 348.550 C 228.504 348.251,228.000 348.059,228.000 348.123 M239.021 353.594 C 239.277 353.826,241.250 354.747,241.250 354.635 C 241.250 354.493,239.363 353.500,239.093 353.500 C 238.996 353.500,238.964 353.542,239.021 353.594 M158.000 354.272 C 157.585 354.612,157.543 354.697,157.875 354.525 C 158.690 354.104,159.143 353.758,158.875 353.759 C 158.738 353.760,158.344 353.991,158.000 354.272 M245.000 356.625 C 245.619 356.956,246.238 357.227,246.375 357.227 C 246.512 357.227,246.119 356.956,245.500 356.625 C 244.881 356.294,244.262 356.023,244.125 356.023 C 243.988 356.023,244.381 356.294,245.000 356.625 M250.000 359.069 C 250.000 359.117,250.366 359.424,250.813 359.751 C 251.315 360.119,251.490 360.179,251.271 359.909 C 250.938 359.499,250.000 358.879,250.000 359.069 M146.770 360.404 C 146.064 361.039,145.368 361.799,145.223 362.092 C 145.078 362.385,145.252 362.267,145.610 361.829 C 145.968 361.391,146.737 360.634,147.318 360.146 C 147.899 359.659,148.303 359.258,148.215 359.255 C 148.126 359.252,147.476 359.769,146.770 360.404 M252.500 361.125 C 252.966 361.606,253.404 362.000,253.473 362.000 C 253.542 362.000,253.216 361.606,252.750 361.125 C 252.284 360.644,251.846 360.250,251.777 360.250 C 251.708 360.250,252.034 360.644,252.500 361.125 M252.695 387.290 C 251.496 388.519,250.821 389.302,251.195 389.031 C 252.132 388.353,255.386 384.901,254.968 385.028 C 254.917 385.044,253.894 386.062,252.695 387.290 M146.500 387.625 C 146.966 388.106,147.404 388.500,147.473 388.500 C 147.542 388.500,147.216 388.106,146.750 387.625 C 146.284 387.144,145.846 386.750,145.777 386.750 C 145.708 386.750,146.034 387.144,146.500 387.625 M245.625 391.250 C 244.933 391.426,244.923 391.443,245.500 391.467 C 245.844 391.481,246.294 391.383,246.500 391.250 C 246.925 390.975,246.706 390.975,245.625 391.250 M220.566 391.929 C 220.946 391.987,221.508 391.985,221.816 391.926 C 222.123 391.867,221.813 391.820,221.125 391.822 C 220.438 391.823,220.186 391.872,220.566 391.929 M223.822 391.935 C 224.617 391.985,225.855 391.984,226.572 391.934 C 227.288 391.884,226.637 391.843,225.125 391.844 C 223.613 391.844,223.026 391.885,223.822 391.935 M229.188 391.934 C 229.909 391.985,231.091 391.985,231.813 391.934 C 232.534 391.884,231.944 391.842,230.500 391.842 C 229.056 391.842,228.466 391.884,229.188 391.934 M234.438 391.934 C 235.159 391.985,236.341 391.985,237.063 391.934 C 237.784 391.884,237.194 391.842,235.750 391.842 C 234.306 391.842,233.716 391.884,234.438 391.934 M239.563 391.922 C 239.803 391.985,240.197 391.985,240.438 391.922 C 240.678 391.859,240.481 391.808,240.000 391.808 C 239.519 391.808,239.322 391.859,239.563 391.922 M241.566 391.929 C 241.946 391.987,242.508 391.985,242.816 391.926 C 243.123 391.867,242.813 391.820,242.125 391.822 C 241.438 391.823,241.186 391.872,241.566 391.929 " stroke="none" fill="#77744a" fill-rule="evenodd"></path><path id="path5" d="M193.563 298.172 C 193.803 298.235,194.197 298.235,194.438 298.172 C 194.678 298.109,194.481 298.058,194.000 298.058 C 193.519 298.058,193.322 298.109,193.563 298.172 " stroke="none" fill="#2c2718" fill-rule="evenodd"></path><path id="path6" d="M211.440 391.427 C 211.751 391.487,212.201 391.484,212.440 391.422 C 212.679 391.359,212.425 391.310,211.875 391.313 C 211.325 391.316,211.129 391.367,211.440 391.427 " stroke="none" fill="#3c3c3c" fill-rule="evenodd"></path><path id="path7" d="M196.940 381.427 C 197.251 381.487,197.701 381.484,197.940 381.422 C 198.179 381.359,197.925 381.310,197.375 381.313 C 196.825 381.316,196.629 381.367,196.940 381.427 M226.690 381.427 C 227.001 381.487,227.451 381.484,227.690 381.422 C 227.929 381.359,227.675 381.310,227.125 381.313 C 226.575 381.316,226.379 381.367,226.690 381.427 " stroke="none" fill="#1b1c17" fill-rule="evenodd"></path><path id="path8" d="" stroke="none" fill="#3c3c06" fill-rule="evenodd"></path></g></svg>