<?xml version="1.0" standalone="no"?>
<!DOCTYPE svg PUBLIC "-//W3C//DTD SVG 20010904//EN"
 "http://www.w3.org/TR/2001/REC-SVG-20010904/DTD/svg10.dtd">
<svg version="1.0" xmlns="http://www.w3.org/2000/svg"
 width="1600.000000pt" height="1600.000000pt" viewBox="0 0 1600.000000 1600.000000"
 preserveAspectRatio="xMidYMid meet">

<g transform="translate(0.000000,1600.000000) scale(0.100000,-0.100000)"
fill="#000000" stroke="none">
<path d="M7910 15899 c-55 -25 -75 -43 -108 -94 -14 -22 -57 -84 -96 -137 -86
-118 -161 -226 -228 -333 -28 -44 -63 -98 -78 -120 -34 -51 -166 -296 -212
-395 -76 -162 -131 -315 -187 -525 -13 -46 -38 -205 -46 -285 -3 -30 -8 -852
-10 -1827 l-4 -1772 -38 -34 c-21 -19 -63 -54 -93 -77 -30 -24 -91 -75 -135
-114 -44 -39 -125 -107 -180 -151 -55 -44 -134 -109 -175 -145 -41 -37 -109
-93 -150 -126 -41 -32 -109 -88 -150 -124 -41 -36 -115 -99 -164 -139 -95 -77
-113 -97 -140 -148 -15 -29 -16 -140 -16 -1238 0 -1351 -6 -1251 73 -1303 29
-19 56 -27 102 -30 63 -4 64 -4 267 97 112 56 214 108 228 116 14 8 95 49 180
91 85 42 205 102 265 133 61 31 114 57 118 59 4 2 7 -370 7 -827 l-1 -831 -74
-48 c-41 -26 -109 -69 -152 -96 -100 -63 -161 -102 -248 -158 -39 -25 -86 -53
-105 -63 -19 -10 -53 -31 -75 -47 -59 -42 -140 -94 -188 -120 -23 -12 -58 -34
-77 -49 -19 -14 -50 -34 -68 -43 -19 -10 -87 -52 -153 -94 -65 -42 -155 -99
-200 -127 -193 -120 -219 -140 -256 -195 l-38 -55 0 -586 0 -586 29 -37 c16
-22 49 -47 74 -58 58 -26 142 -18 221 21 31 16 218 111 416 211 198 101 378
191 400 202 39 18 50 24 90 46 11 6 63 32 115 58 52 26 135 67 183 91 48 24
91 42 95 39 8 -5 9 -1793 1 -1800 -2 -2 -157 -78 -344 -170 -187 -92 -349
-172 -360 -178 -11 -6 -56 -29 -100 -50 -44 -22 -89 -44 -100 -50 -11 -6 -38
-21 -59 -32 -107 -56 -211 -193 -257 -336 -22 -68 -24 -92 -23 -265 0 -213 10
-266 70 -392 59 -124 195 -248 319 -291 52 -18 11 -17 3213 -32 290 -1 483 2
500 8 15 5 52 15 82 22 188 44 361 230 389 420 6 36 9 162 7 280 -3 182 -6
224 -23 271 -30 88 -82 166 -158 237 -66 61 -95 77 -562 308 l-493 244 0 915
0 915 48 -24 c26 -13 163 -81 305 -150 521 -256 766 -375 917 -450 161 -79
193 -87 261 -65 76 26 126 107 107 174 -4 17 -8 274 -7 573 0 515 -1 546 -19
580 -19 38 -69 72 -478 328 -117 73 -257 161 -609 382 -161 101 -408 257 -472
299 l-53 33 0 825 c0 454 3 825 6 825 6 0 105 -50 692 -347 292 -147 317 -158
364 -156 77 3 117 28 163 103 l40 64 -1 1181 0 1180 -21 40 c-28 54 -21 47
-676 594 l-567 473 0 1771 c0 975 -3 1799 -6 1832 -40 445 -267 962 -682 1556
-171 244 -204 284 -264 319 -62 35 -105 38 -168 9z m213 -779 c269 -404 415
-746 468 -1090 9 -63 13 -261 13 -760 l1 -675 -617 -3 -617 -2 -4 177 c-4 254
-1 1212 5 1248 45 261 146 537 301 820 65 118 155 270 207 351 18 27 47 70 64
97 l31 48 23 -28 c12 -16 69 -98 125 -183z m490 -5118 c-1 -1196 -4 -2176 -6
-2179 -3 -3 -281 -5 -618 -5 l-614 1 -5 23 c-3 13 -7 993 -9 2179 l-2 2157
628 -2 628 -1 -2 -2173z m663 -362 c116 -96 293 -242 393 -324 l181 -148 0
-923 0 -924 -407 205 -408 204 0 1054 c0 933 1 1053 15 1043 8 -7 110 -91 226
-187z m-2343 -1911 c-5 -4 -64 -35 -133 -69 -69 -33 -134 -66 -145 -72 -80
-45 -518 -259 -522 -254 -6 5 -10 264 -17 1218 l-5 598 97 77 c53 43 131 107
172 143 41 36 95 81 120 100 25 18 79 63 120 100 41 36 113 95 159 130 46 36
100 79 120 97 l36 31 3 -1046 c1 -575 -1 -1049 -5 -1053z m1672 -1745 c0 -770
-2 -1423 -3 -1451 l-4 -51 -608 0 c-498 0 -609 2 -614 13 -6 17 -7 2876 0
2886 3 5 280 8 617 6 l612 -2 0 -1401z m660 -989 c77 -48 192 -120 255 -160
63 -40 179 -112 258 -161 79 -49 200 -125 270 -170 70 -44 151 -93 179 -110
l53 -29 0 -292 0 -292 -347 176 c-192 97 -471 238 -622 314 l-275 138 -1 348
c0 191 1 354 3 361 5 15 24 4 227 -123z m-2333 108 c2 -9 1 -170 -2 -359 l-5
-342 -310 -158 c-170 -86 -350 -177 -400 -201 -49 -24 -99 -49 -109 -55 -63
-34 -391 -198 -398 -198 -4 0 -8 128 -8 285 l0 284 43 28 c45 30 50 33 142 89
33 20 85 54 117 75 31 22 60 39 66 39 5 0 29 15 53 33 24 17 64 43 89 56 25
13 63 36 85 51 51 34 141 91 245 155 90 55 150 93 284 178 49 31 92 57 97 57
4 0 9 -7 11 -17z m1676 -2690 l-3 -1658 -615 0 -615 0 -3 1658 -2 1657 620 0
621 0 -3 -1657z m-1678 -1213 l0 -440 -42 -1 c-24 0 -176 -1 -338 -2 -279 -1
-297 0 -335 19 -73 38 -79 56 -85 227 -3 84 -1 166 4 182 11 38 70 101 116
124 19 9 44 22 55 28 11 6 97 48 190 93 94 44 181 88 195 96 14 8 37 19 51 25
14 5 59 27 100 48 41 21 77 39 82 40 4 0 7 -197 7 -439z m2501 256 c337 -166
382 -192 408 -243 17 -33 15 -327 -3 -361 -23 -45 -72 -84 -113 -91 -52 -9
-671 -6 -680 3 -5 4 -8 203 -8 442 l-1 435 21 -5 c12 -3 181 -84 376 -180z"/>
<path d="M7940 11211 c-76 -24 -122 -65 -149 -135 -49 -129 48 -274 189 -284
52 -4 63 -1 107 28 138 90 152 236 34 343 -22 20 -51 39 -63 41 -56 12 -95 14
-118 7z"/>
<path d="M7925 10323 c-52 -18 -123 -88 -135 -133 -19 -67 -12 -122 20 -173
90 -142 261 -143 356 -3 28 42 34 60 34 104 0 64 -25 116 -76 161 -59 52 -131
68 -199 44z"/>
<path d="M7925 9442 c-112 -37 -180 -184 -130 -283 61 -121 192 -165 297 -99
105 66 139 188 80 281 -36 55 -57 74 -106 94 -50 21 -93 23 -141 7z"/>
<path d="M7938 3573 c-32 -5 -122 -83 -143 -124 -17 -32 -20 -115 -5 -153 16
-44 89 -114 136 -132 73 -28 149 -7 213 58 86 86 81 207 -11 295 -55 54 -107
69 -190 56z"/>
<path d="M7931 2693 c-35 -7 -134 -111 -148 -155 -14 -47 -1 -120 30 -165 24
-36 97 -90 134 -100 68 -16 162 27 219 102 38 50 45 134 16 191 -52 101 -144
147 -251 127z"/>
<path d="M7927 1808 c-50 -13 -121 -85 -140 -141 -31 -90 14 -194 108 -248 44
-27 56 -29 109 -25 65 6 104 30 160 99 40 50 48 134 18 194 -37 71 -128 134
-191 132 -14 -1 -43 -6 -64 -11z"/>
</g>
</svg>
